<svg width="40" height="40" viewBox="0 0 40 40" fill="none" xmlns="http://www.w3.org/2000/svg">
<path d="M20 40C31.0277 40 40 31.0277 40 20C40 8.97227 31.0277 0 20 0C8.97227 0 0 8.97227 0 20C0 31.0277 8.97227 40 20 40ZM20 1.99837C29.9266 1.99837 38.0016 10.0734 38.0016 20C38.0016 29.9266 29.9266 38.0016 20 38.0016C10.0734 38.0016 1.99837 29.9266 1.99837 20C1.99837 10.0734 10.0734 1.99837 20 1.99837Z" fill="#A4B1BF"/>
<path d="M11.3132 21.0033H26.2724L22.3573 24.9185C21.9657 25.31 21.9657 25.938 22.3573 26.3296C22.553 26.5253 22.8059 26.6232 23.0669 26.6232C23.3279 26.6232 23.5807 26.5253 23.7765 26.3296L29.3964 20.7096C29.7879 20.3181 29.7879 19.6901 29.3964 19.2986L23.7765 13.6786C23.385 13.2871 22.7569 13.2871 22.3654 13.6786C21.9739 14.0702 21.9739 14.6982 22.3654 15.0897L26.2806 19.0049H11.3132C10.7586 19.0049 10.31 19.4535 10.31 20.0082C10.31 20.5628 10.7586 21.0033 11.3132 21.0033Z" fill="#A4B1BF"/>
</svg>
