<svg width="17" height="17" viewBox="0 0 17 17" fill="none" xmlns="http://www.w3.org/2000/svg">
<g clip-path="url(#clip0)">
<path d="M16.8053 8.02994C16.8051 8.02974 16.8049 8.02951 16.8047 8.02931L13.3348 4.57619C13.0749 4.3175 12.6544 4.31846 12.3957 4.57844C12.137 4.83839 12.138 5.25884 12.3979 5.51756L14.7276 7.83593H0.664124C0.297362 7.83593 6.10352e-05 8.13323 6.10352e-05 8.49999C6.10352e-05 8.86676 0.297362 9.16406 0.664124 9.16406H14.7275L12.3979 11.4824C12.138 11.7411 12.137 12.1616 12.3957 12.4215C12.6545 12.6816 13.075 12.6825 13.3349 12.4238L16.8047 8.97068C16.8049 8.97048 16.8051 8.97025 16.8053 8.97005C17.0654 8.71047 17.0646 8.28866 16.8053 8.02994Z" fill="#FE5D44"/>
</g>
<defs>
<clipPath id="clip0">
<rect width="17" height="17" fill="white"/>
</clipPath>
</defs>
</svg>
