<svg width="17" height="17" viewBox="0 0 17 17" fill="none" xmlns="http://www.w3.org/2000/svg">
<g clip-path="url(#clip0)">
<path d="M11.5287 10.0012L9.15845 8.22346V4.60227C9.15845 4.23816 8.86414 3.94385 8.50003 3.94385C8.13593 3.94385 7.84161 4.23816 7.84161 4.60227V8.55271C7.84161 8.76009 7.93906 8.95566 8.10498 9.07944L10.7386 11.0547C10.8571 11.1435 10.9954 11.1863 11.133 11.1863C11.3338 11.1863 11.5313 11.0961 11.6604 10.9223C11.879 10.6319 11.8198 10.2191 11.5287 10.0012Z" fill="#777A9D"/>
<path d="M8.50006 0C3.81288 0 6.10352e-05 3.81281 6.10352e-05 8.5C6.10352e-05 13.1872 3.81288 17 8.50006 17C13.1872 17 17.0001 13.1872 17.0001 8.5C17.0001 3.81281 13.1872 0 8.50006 0ZM8.50006 15.6832C4.53976 15.6832 1.31686 12.4603 1.31686 8.5C1.31686 4.5397 4.53976 1.3168 8.50006 1.3168C12.461 1.3168 15.6833 4.5397 15.6833 8.5C15.6833 12.4603 12.4604 15.6832 8.50006 15.6832Z" fill="#777A9D"/>
</g>
<defs>
<clipPath id="clip0">
<rect width="17" height="17" fill="white"/>
</clipPath>
</defs>
</svg>
