<svg width="57" height="10" viewBox="0 0 57 10" fill="none" xmlns="http://www.w3.org/2000/svg">
<g clip-path="url(#clip0)">
<path d="M54.8497 5.00003C54.8497 5.17925 54.7813 5.35845 54.6447 5.49509L50.3449 9.79486C50.0714 10.0684 49.6279 10.0684 49.3545 9.79486C49.0811 9.52145 49.0811 9.07807 49.3545 8.80453L53.1592 5.00003L49.3546 1.19552C49.0812 0.922001 49.0812 0.478666 49.3546 0.205277C49.628 -0.0683766 50.0715 -0.0683766 50.345 0.205277L54.6448 4.50498C54.7814 4.64168 54.8497 4.82088 54.8497 5.00003Z" fill="white"/>
</g>
<g clip-path="url(#clip1)">
<path d="M2.15031 5.00003C2.15031 5.17925 2.21874 5.35845 2.35531 5.49509L6.65513 9.79486C6.92865 10.0684 7.37212 10.0684 7.64553 9.79486C7.91894 9.52145 7.91894 9.07807 7.64553 8.80453L3.84081 5.00003L7.6454 1.19552C7.91881 0.922001 7.91881 0.478666 7.6454 0.205277C7.37198 -0.0683766 6.92852 -0.0683766 6.65499 0.205277L2.35518 4.50498C2.21858 4.64168 2.15031 4.82088 2.15031 5.00003Z" fill="white"/>
</g>
<defs>
<clipPath id="clip0">
<rect width="10" height="10" fill="white" transform="translate(47 10) rotate(-90)"/>
</clipPath>
<clipPath id="clip1">
<rect width="10" height="10" fill="white" transform="matrix(4.37114e-08 -1 -1 -4.37114e-08 10 10)"/>
</clipPath>
</defs>
</svg>
