<svg width="26" height="26" viewBox="0 0 26 26" fill="none" xmlns="http://www.w3.org/2000/svg">
<g clip-path="url(#clip0)">
<path d="M12.9769 8.21351L7.5808 17.573H7.56556L10.6905 21.3838L3.67854 24.3258C3.5413 24.2496 3.43459 24.1429 3.37367 24.0362L0.0810386 17.9388C-0.0866391 17.6034 0.0506025 17.3443 0.096282 17.1919L8.92228 1.94846C8.9832 1.857 9.07466 1.76554 9.19666 1.68927H9.2119L13.7391 3.09172L12.9769 8.21351Z" fill="#59C36A"/>
<path d="M25.9999 17.573L19.8873 21.3838L18.4392 17.573L12.9769 8.21351L9.21179 1.68922C9.31839 1.613 9.45564 1.56732 9.57763 1.56732H16.427C16.5795 1.613 16.8843 1.59776 17.0824 1.94841L25.9084 17.1918C25.9694 17.2986 25.9999 17.4357 25.9999 17.573Z" fill="#FFDA2D"/>
<path d="M17.0824 1.94847C16.8844 1.59782 16.5795 1.61306 16.427 1.56738H12.9769V8.21352L18.4392 17.573L19.8873 21.3838L25.9999 17.573C25.9999 17.4357 25.9694 17.2986 25.9084 17.1919L17.0824 1.94847Z" fill="#FDBF00"/>
<path d="M25.9999 17.573C25.9999 17.7101 25.9694 17.8474 25.9237 17.9388L22.6311 24.0362C22.5091 24.2344 22.2196 24.4326 21.9604 24.4326H4.04431C3.92231 24.4326 3.78512 24.3868 3.67847 24.3258L7.56554 17.573H25.9999Z" fill="#4086F4"/>
<path d="M12.9769 24.4326H21.9604C22.2196 24.4326 22.5092 24.2344 22.6311 24.0362L25.9237 17.9388C25.9694 17.8474 25.9999 17.7101 25.9999 17.573H12.977V24.4326H12.9769Z" fill="#4175DF"/>
</g>
<defs>
<clipPath id="clip0">
<rect width="26" height="26" fill="white"/>
</clipPath>
</defs>
</svg>
