<svg width="20" height="22" viewBox="0 0 20 22" fill="none" xmlns="http://www.w3.org/2000/svg">
<path d="M19.8438 11C19.8438 10.3528 19.3191 9.82812 18.6719 9.82812H10.4102C9.76293 9.82812 9.23828 10.3528 9.23828 11C9.23828 11.6472 9.76293 12.1719 10.4102 12.1719H18.6719C19.3191 12.1719 19.8438 11.6472 19.8438 11ZM7.36328 1.91797C7.36328 1.27074 6.83863 0.746094 6.19141 0.746094H1.26953C0.622305 0.746094 0.0976562 1.27074 0.0976562 1.91797C0.0976562 2.5652 0.622305 3.08984 1.26953 3.08984H6.19141C6.83863 3.08984 7.36328 2.5652 7.36328 1.91797Z" fill="white"/>
<path d="M19.668 20.1406C19.668 19.4934 19.1433 18.9688 18.4961 18.9688H15.918C15.2707 18.9688 14.7461 19.4934 14.7461 20.1406C14.7461 20.7879 15.2707 21.3125 15.918 21.3125H18.4961C19.1433 21.3125 19.668 20.7879 19.668 20.1406Z" fill="white" fill-opacity="0.6"/>
<path d="M14.5703 5.31641C15.2175 5.31641 15.7422 5.84105 15.7422 6.48828C15.7422 7.13551 15.2175 7.66016 14.5703 7.66016H3.61328C2.96605 7.66016 2.44141 7.13551 2.44141 6.48828C2.44141 5.84105 2.96605 5.31641 3.61328 5.31641H14.5703Z" fill="white" fill-opacity="0.6"/>
<path d="M16.9141 14.3984C17.5613 14.3984 18.0859 14.9231 18.0859 15.5703C18.0859 16.2175 17.5613 16.7422 16.9141 16.7422H7.12891C6.48168 16.7422 5.95703 16.2175 5.95703 15.5703C5.95703 14.9231 6.48168 14.3984 7.12891 14.3984H16.9141Z" fill="white" fill-opacity="0.6"/>
</svg>
