<svg width="27" height="27" viewBox="0 0 27 27" fill="none" xmlns="http://www.w3.org/2000/svg">
<path fill-rule="evenodd" clip-rule="evenodd" d="M15 1.5C15 0.671573 14.3284 0 13.5 0C12.6716 0 12 0.671573 12 1.5V12H1.5C0.671573 12 0 12.6716 0 13.5C0 14.3284 0.671573 15 1.5 15H12V25.5C12 26.3284 12.6716 27 13.5 27C14.3284 27 15 26.3284 15 25.5V15H25.5C26.3284 15 27 14.3284 27 13.5C27 12.6716 26.3284 12 25.5 12H15V1.5Z" fill="url(#paint0_linear)"/>
<defs>
<linearGradient id="paint0_linear" x1="11.5" y1="-2.18557e-08" x2="11.5" y2="27" gradientUnits="userSpaceOnUse">
<stop stop-color="#FE0477"/>
<stop offset="1" stop-color="#FFCB05"/>
</linearGradient>
</defs>
</svg>
