<svg width="33" height="26" viewBox="0 0 33 26" fill="none" xmlns="http://www.w3.org/2000/svg">
<path d="M19.814 6.44744C21.2093 4.20485 22.8837 2.52291 24.8372 1.40162C26.3256 0.467206 27.9767 0 29.7907 0C31 0 31.6047 0.327044 31.6047 0.981132C31.6047 1.26146 31.3488 1.49506 30.8372 1.68194C28.7907 2.47619 27.1628 3.92453 25.9535 6.02695C24.9767 7.70889 24.4186 9.39084 24.2791 11.0728C24.5581 11.0261 24.9767 11.0027 25.5349 11.0027C30.5116 11.0027 33 13.5022 33 18.5013C33 23.5004 30.5116 26 25.5349 26C23.0233 26 21 25.159 19.4651 23.4771C17.7442 21.7017 16.8837 19.319 16.8837 16.3288C16.8837 12.7314 17.8605 9.43756 19.814 6.44744ZM2.93023 6.44744C4.32558 4.20485 6 2.52291 7.95349 1.40162C9.44186 0.467206 11.093 0 12.907 0C14.1163 0 14.7209 0.327044 14.7209 0.981132C14.7209 1.26146 14.4651 1.49506 13.9535 1.68194C11.907 2.47619 10.2791 3.92453 9.06977 6.02695C8.09302 7.70889 7.53488 9.39084 7.39535 11.0728C7.67442 11.0261 8.09302 11.0027 8.65116 11.0027C13.6279 11.0027 16.1163 13.5022 16.1163 18.5013C16.1163 23.5004 13.6279 26 8.65116 26C6.13953 26 4.11628 25.159 2.5814 23.4771C0.860465 21.7017 0 19.319 0 16.3288C0 12.7314 0.976744 9.43756 2.93023 6.44744Z" fill="#E0E4EA"/>
</svg>
