<svg width="36" height="36" viewBox="0 0 36 36" fill="none" xmlns="http://www.w3.org/2000/svg">
<path d="M14.4626 8.43139C15.3629 8.05385 15.7404 6.97932 15.3339 6.10808L13.9108 3.11681C13.5042 2.2749 12.5168 1.89707 11.6456 2.2749C9.17708 3.32039 7.05706 4.68534 5.37266 6.3407C3.31072 8.28618 1.91673 10.5224 1.16166 12.9909C0.40658 15.4887 0 18.8863 0 23.2135V32.1292C0 33.0875 0.784118 33.8716 1.74248 33.8716H13.1558C14.1141 33.8716 14.8982 33.0875 14.8982 32.1292V20.7159C14.8982 19.7572 14.1141 18.9734 13.1558 18.9734H7.69597C7.75405 16.0399 8.45105 13.6879 9.72887 11.9161C10.7744 10.4936 12.3426 9.33196 14.4626 8.43139Z" fill="#DEE6FD"/>
<path d="M34.9658 8.43139C35.8661 8.05385 36.2434 6.97932 35.8371 6.10808L34.414 3.14615C34.0075 2.30395 33.02 1.92641 32.1488 2.30395C29.7093 3.34944 27.6181 4.71438 25.9049 6.3407C23.8427 8.31552 22.4199 10.5517 21.6646 13.0202C20.9095 15.4594 20.5322 18.8575 20.5322 23.2138V32.1295C20.5322 33.0878 21.3164 33.8719 22.2747 33.8719H33.688C34.6464 33.8719 35.4305 33.0878 35.4305 32.1295V20.7162C35.4305 19.7575 34.6464 18.9737 33.688 18.9737H28.1992C28.2573 16.0402 28.9545 13.6882 30.2321 11.9164C31.2776 10.4936 32.8458 9.33196 34.9658 8.43139Z" fill="#DEE6FD"/>
</svg>
