<svg width="45" height="45" viewBox="0 0 45 45" fill="none" xmlns="http://www.w3.org/2000/svg">
<path d="M36.9511 44.2296C27.3268 45.2568 17.6732 45.2568 8.04886 44.2296C4.2112 43.82 1.18 40.7888 0.770416 36.9508C-0.256805 27.3264 -0.256805 17.6732 0.770416 8.04886C1.18 4.2112 4.2112 1.18 8.04886 0.770416C17.6732 -0.256805 27.3264 -0.256805 36.9508 0.770416C40.7888 1.18 43.82 4.2112 44.2296 8.04886C45.2568 17.6732 45.2568 27.3264 44.2296 36.9508C43.82 40.7888 40.7891 43.82 36.9511 44.2296Z" fill="url(#paint0_linear)"/>
<path d="M41.782 9.67649C41.4188 6.27108 38.7292 3.58114 35.3234 3.21756C26.783 2.30639 18.2171 2.30639 9.67656 3.21756C6.27114 3.58114 3.5812 6.27108 3.21762 9.67649C2.30645 18.217 2.30645 26.7829 3.21762 35.323C3.5812 38.7288 6.27114 41.4187 9.67656 41.782C18.2171 42.6935 26.783 42.6935 35.3231 41.782C38.7289 41.4187 41.4188 38.7288 41.782 35.323C42.6936 26.7829 42.6936 18.217 41.782 9.67649Z" fill="url(#paint1_linear)"/>
<path d="M0.674286 36.0181C0.705185 36.3291 0.737114 36.6402 0.770416 36.9512C1.18 40.7889 4.2112 43.8201 8.0492 44.2297C17.6736 45.2569 27.3268 45.2569 36.9511 44.2297C40.7891 43.8201 43.82 40.7889 44.2296 36.9512C44.2629 36.6402 44.2948 36.3291 44.3261 36.0181H0.674286Z" fill="url(#paint2_linear)"/>
<path d="M43.7445 38.9857L14.7048 9.94574C14.0563 9.09945 13.036 8.55322 11.8875 8.55322C9.92854 8.55322 8.34033 10.1411 8.34033 12.1001C8.34033 13.2488 8.8869 14.2692 9.73319 14.9174L38.6719 43.8564C41.0109 43.0781 42.8752 41.2808 43.7445 38.9857Z" fill="url(#paint3_linear)"/>
<path d="M14.8669 17.9739H8.90784V36.4467L17.3632 44.9021C23.8939 45.1492 30.429 44.9257 36.9508 44.2295C38.091 44.1079 39.159 43.7533 40.1094 43.2163L14.8669 17.9739Z" fill="url(#paint4_linear)"/>
<path d="M35.1044 19.5213C34.0144 18.3262 32.445 17.5764 30.7006 17.5764C27.9413 17.5764 26.1605 18.5456 25.1007 19.4455L23.933 17.974H18.4423V36.4468L26.923 44.9276C30.2677 44.8187 33.6109 44.586 36.9511 44.2296C40.7891 43.82 43.82 40.7888 44.2296 36.9511C44.5035 34.3852 44.7037 31.8171 44.8314 29.2484L35.1044 19.5213Z" fill="url(#paint5_linear)"/>
<path d="M8.9082 17.9741H14.8669V36.4469H8.9082V17.9741Z" fill="white"/>
<path d="M30.7006 17.5764C26.3339 17.5764 24.4157 20.0034 23.933 20.7422V17.974H18.4423V36.4468H24.4013V27.1678C24.4013 24.4865 25.6356 22.4008 27.9767 22.4008C30.3175 22.4008 30.7006 24.997 30.7006 28.1896V36.4468H36.6597V23.5355C36.6597 20.2444 33.9917 17.5764 30.7006 17.5764Z" fill="white"/>
<path d="M15.4344 12.1004C15.4344 14.0594 13.8465 15.6473 11.8875 15.6473C9.92854 15.6473 8.34033 14.0594 8.34033 12.1004C8.34033 10.1414 9.92854 8.55322 11.8875 8.55322C13.8465 8.55322 15.4344 10.1414 15.4344 12.1004Z" fill="white"/>
<defs>
<linearGradient id="paint0_linear" x1="14.9409" y1="6.32691" x2="26.3227" y2="30.6786" gradientUnits="userSpaceOnUse">
<stop stop-color="#0077B5"/>
<stop offset="1" stop-color="#0066B2"/>
</linearGradient>
<linearGradient id="paint1_linear" x1="32.017" y1="27.6052" x2="-33.3621" y2="-7.46656" gradientUnits="userSpaceOnUse">
<stop stop-color="#0066B2" stop-opacity="0"/>
<stop offset="1" stop-color="#07485E"/>
</linearGradient>
<linearGradient id="paint2_linear" x1="22.5" y1="36.5473" x2="22.5" y2="45.9523" gradientUnits="userSpaceOnUse">
<stop stop-color="#0066B2" stop-opacity="0"/>
<stop offset="1" stop-color="#07485E"/>
</linearGradient>
<linearGradient id="paint3_linear" x1="23.8495" y1="24.0623" x2="7.02394" y2="7.23677" gradientUnits="userSpaceOnUse">
<stop stop-color="#0066B2" stop-opacity="0"/>
<stop offset="1" stop-color="#07485E"/>
</linearGradient>
<linearGradient id="paint4_linear" x1="33.728" y1="39.694" x2="-0.154401" y2="23.8117" gradientUnits="userSpaceOnUse">
<stop stop-color="#0066B2" stop-opacity="0"/>
<stop offset="1" stop-color="#07485E"/>
</linearGradient>
<linearGradient id="paint5_linear" x1="41.9705" y1="43.1767" x2="18.3665" y2="19.5727" gradientUnits="userSpaceOnUse">
<stop stop-color="#0066B2" stop-opacity="0"/>
<stop offset="1" stop-color="#07485E"/>
</linearGradient>
</defs>
</svg>
