<svg width="18" height="18" viewBox="0 0 18 18" fill="none" xmlns="http://www.w3.org/2000/svg">
<path d="M12.0051 11.8928C13.9205 8.88722 13.6797 9.2622 13.7349 9.18383C14.4323 8.20023 14.8008 7.04257 14.8008 5.83594C14.8008 2.63602 12.2042 0 9.00006 0C5.8064 0 3.19928 2.63081 3.19928 5.83594C3.19928 7.0418 3.57559 8.22976 4.2958 9.22662L5.99498 11.8929C4.17828 12.172 1.0899 13.004 1.0899 14.8359C1.0899 15.5037 1.52577 16.4554 3.60224 17.197C5.05215 17.7148 6.96912 18 9.00006 18C12.7978 18 16.9102 16.9287 16.9102 14.8359C16.9102 13.0037 13.8255 12.1726 12.0051 11.8928ZM5.17678 8.6465C5.17098 8.63743 5.16494 8.62857 5.15861 8.61985C4.5593 7.79537 4.25397 6.81824 4.25397 5.83594C4.25397 3.19859 6.37762 1.05469 9.00006 1.05469C11.6171 1.05469 13.7462 3.19954 13.7462 5.83594C13.7462 6.81982 13.4466 7.7638 12.8797 8.56656C12.8289 8.63357 13.0939 8.22182 9.00006 14.6457L5.17678 8.6465ZM9.00006 16.9453C4.85183 16.9453 2.14459 15.726 2.14459 14.8359C2.14459 14.2377 3.53565 13.2541 6.61816 12.8707L8.55533 15.9104C8.65215 16.0623 8.81985 16.1543 9.00003 16.1543C9.1802 16.1543 9.34793 16.0623 9.44472 15.9104L11.3819 12.8707C14.4644 13.2541 15.8555 14.2377 15.8555 14.8359C15.8555 15.7184 13.1727 16.9453 9.00006 16.9453Z" fill="#777A9D"/>
<path d="M9.00006 3.19922C7.54617 3.19922 6.36334 4.38205 6.36334 5.83594C6.36334 7.28982 7.54617 8.47266 9.00006 8.47266C10.4539 8.47266 11.6368 7.28982 11.6368 5.83594C11.6368 4.38205 10.4539 3.19922 9.00006 3.19922ZM9.00006 7.41797C8.12773 7.41797 7.41803 6.70827 7.41803 5.83594C7.41803 4.96361 8.12773 4.25391 9.00006 4.25391C9.87239 4.25391 10.5821 4.96361 10.5821 5.83594C10.5821 6.70827 9.87239 7.41797 9.00006 7.41797Z" fill="#777A9D"/>
</svg>
