<svg width="16" height="16" viewBox="0 0 16 16" fill="none" xmlns="http://www.w3.org/2000/svg">
<path d="M15.3261 11.5776C15.1831 11.4016 14.9431 11.3365 14.7319 11.4123C14.1399 11.6245 13.4978 11.7333 12.8215 11.7333C9.58634 11.7333 6.95487 9.1008 6.95487 5.86667C6.95487 3.92 7.91594 2.10773 9.52554 1.0176C9.70794 0.893867 9.79541 0.670933 9.74634 0.456533C9.69727 0.242133 9.52127 0.08 9.30261 0.048C9.05301 0.0117333 8.80447 0 8.55487 0C4.14314 0 0.554871 3.58827 0.554871 8C0.554871 12.4117 4.14314 16 8.55487 16C11.3549 16 13.9021 14.5771 15.3666 12.1941C15.485 12.0011 15.4679 11.7547 15.3261 11.5776Z" fill="white"/>
</svg>
