<svg width="76" height="76" viewBox="0 0 76 76" fill="none" xmlns="http://www.w3.org/2000/svg">
<path d="M19 0C16.3875 0 14.25 2.1375 14.25 4.75V71.25C14.25 73.8625 16.3875 76 19 76H66.5C69.1125 76 71.25 73.8625 71.25 71.25V19L52.25 0H19Z" fill="#E2E5E7"/>
<path d="M57 19H71.25L52.25 0V14.25C52.25 16.8625 54.3875 19 57 19Z" fill="#B0B7BD"/>
<path d="M71.25 33.25L57 19H71.25V33.25Z" fill="#CAD1D8"/>
<path d="M61.75 61.75C61.75 63.0562 60.6813 64.125 59.375 64.125H7.125C5.81875 64.125 4.75 63.0562 4.75 61.75V38C4.75 36.6938 5.81875 35.625 7.125 35.625H59.375C60.6813 35.625 61.75 36.6938 61.75 38V61.75Z" fill="#F15642"/>
<path d="M15.1025 44.9991C15.1025 44.3721 15.5965 43.6881 16.3922 43.6881H20.7788C23.2488 43.6881 25.4718 45.3411 25.4718 48.5094C25.4718 51.5114 23.2488 53.1834 20.7788 53.1834H17.6082V55.6914C17.6082 56.5274 17.0762 57 16.3922 57C15.7652 57 15.1025 56.5274 15.1025 55.6914V44.9991ZM17.6082 46.0797V50.8107H20.7788C22.0518 50.8107 23.0588 49.6874 23.0588 48.5094C23.0588 47.1817 22.0518 46.0797 20.7788 46.0797H17.6082Z" fill="white"/>
<path d="M29.1909 56.9999C28.5639 56.9999 27.8799 56.6579 27.8799 55.8243V45.037C27.8799 44.3554 28.5639 43.859 29.1909 43.859H33.5395C42.2177 43.859 42.0278 56.9999 33.7105 56.9999H29.1909ZM30.3879 46.177V54.6843H33.5395C38.6671 54.6843 38.8951 46.177 33.5395 46.177H30.3879Z" fill="white"/>
<path d="M45.1063 46.3291V49.3477H49.9489C50.6329 49.3477 51.3169 50.0317 51.3169 50.6943C51.3169 51.3213 50.6329 51.8343 49.9489 51.8343H45.1063V55.8219C45.1063 56.4869 44.6337 56.9976 43.9687 56.9976C43.1327 56.9976 42.6221 56.4869 42.6221 55.8219V45.0347C42.6221 44.3531 43.1351 43.8567 43.9687 43.8567H50.6353C51.4713 43.8567 51.9653 44.3531 51.9653 45.0347C51.9653 45.6427 51.4713 46.3267 50.6353 46.3267H45.1063V46.3291Z" fill="white"/>
<path d="M59.375 64.125H14.25V66.5H59.375C60.6813 66.5 61.75 65.4313 61.75 64.125V61.75C61.75 63.0562 60.6813 64.125 59.375 64.125Z" fill="#CAD1D8"/>
</svg>
