<svg width="16" height="16" viewBox="0 0 16 16" fill="none" xmlns="http://www.w3.org/2000/svg">
<g clip-path="url(#clip0)">
<g clip-path="url(#clip1)">
<path d="M14.7206 9.74296L10.3739 8.95766C10.1735 8.92151 9.96817 8.98574 9.82423 9.12972L8.78989 10.1641C7.62933 9.44427 6.60605 8.45188 5.83591 7.21008L6.87025 6.17575C7.01423 6.03181 7.0785 5.82642 7.0423 5.62612L6.25701 1.27941C6.22466 1.10048 6.11555 0.944697 5.95844 0.85314C4.97263 0.278828 4.1075 -0.145292 2.71393 0.046891C1.80407 0.151741 0.974085 0.515112 0.247008 1.12698C0.117064 1.23635 0.0375567 1.39412 0.0269972 1.56357C-0.481807 9.72354 6.27042 16.4826 14.4364 15.9729C14.6059 15.9624 14.7637 15.8829 14.873 15.7529C15.4848 15.0259 15.8482 14.1959 15.9531 13.286C16.1453 11.8925 15.7211 11.0273 15.1469 10.0415C15.0553 9.88441 14.8996 9.7753 14.7206 9.74296ZM14.7196 13.1379C14.6535 13.7202 14.4401 14.2604 14.0842 14.7471C6.80763 15.0407 0.965099 9.05506 1.25277 1.91572C1.79922 1.51623 2.29577 1.35983 2.87762 1.27829C3.72839 1.15982 4.26473 1.3277 5.08597 1.7854L5.76195 5.52707L4.61837 6.67064C4.42267 6.86634 4.38006 7.16789 4.51385 7.41013C5.46206 9.12699 6.87066 10.5365 8.58971 11.486C8.832 11.6197 9.13355 11.5772 9.32921 11.3815L10.4728 10.2379L14.2145 10.9139C14.7762 11.9217 14.8054 12.375 14.7196 13.1379Z" fill="#203043"/>
</g>
</g>
<defs>
<clipPath id="clip0">
<rect width="16" height="16" fill="white"/>
</clipPath>
<clipPath id="clip1">
<rect width="32" height="32" fill="white"/>
</clipPath>
</defs>
</svg>
