<svg width="116" height="116" viewBox="0 0 116 116" fill="none" xmlns="http://www.w3.org/2000/svg">
<circle cx="57.5" cy="58.5" r="55.5" fill="white"/>
<path d="M57.9999 0C25.9674 0 0 25.9674 0 57.9999C0 90.0323 25.9674 116 57.9999 116C90.0323 116 116 90.0323 116 57.9999C115.966 25.9818 90.0182 0.0342271 57.9999 0ZM82.4259 59.8479C82.0259 60.6502 81.3766 61.3013 80.5752 61.7032C80.5696 61.706 80.566 61.7118 80.566 61.7181C80.566 61.7245 80.5624 61.7302 80.5567 61.7331L47.4232 78.2999C45.3764 79.3226 42.8883 78.4927 41.8653 76.4459C41.5745 75.864 41.4247 75.2217 41.4284 74.5714V41.4286C41.4274 39.1405 43.2813 37.285 45.5694 37.2837C46.2129 37.2835 46.8477 37.433 47.4232 37.7207L80.566 54.2922C82.6138 55.3127 83.4466 57.8001 82.4259 59.8479Z" fill="url(#paint0_linear)"/>
<defs>
<linearGradient id="paint0_linear" x1="0" y1="57.9999" x2="116" y2="57.9999" gradientUnits="userSpaceOnUse">
<stop stop-color="#FD0079"/>
<stop offset="1" stop-color="#FFD200"/>
</linearGradient>
</defs>
</svg>
