<svg width="76" height="76" viewBox="0 0 76 76" fill="none" xmlns="http://www.w3.org/2000/svg">
<path d="M19 0C16.3875 0 14.25 2.1375 14.25 4.75V71.25C14.25 73.8625 16.3875 76 19 76H66.5C69.1125 76 71.25 73.8625 71.25 71.25V19L52.25 0H19Z" fill="#E2E5E7"/>
<path d="M57 19H71.25L52.25 0V14.25C52.25 16.8625 54.3875 19 57 19Z" fill="#B0B7BD"/>
<path d="M71.25 33.25L57 19H71.25V33.25Z" fill="#CAD1D8"/>
<path d="M61.75 61.75C61.75 63.0562 60.6813 64.125 59.375 64.125H7.125C5.81875 64.125 4.75 63.0562 4.75 61.75V38C4.75 36.6938 5.81875 35.625 7.125 35.625H59.375C60.6813 35.625 61.75 36.6938 61.75 38V61.75Z" fill="#F15642"/>
<path d="M15.6533 44.999C15.6533 44.372 16.1473 43.688 16.9429 43.688H21.3296C23.7996 43.688 26.0226 45.341 26.0226 48.5093C26.0226 51.5113 23.7996 53.1833 21.3296 53.1833H18.1589V55.6913C18.1589 56.5273 17.6293 56.9999 16.9453 56.9999C16.3183 56.9999 15.6557 56.5273 15.6557 55.6913V44.999H15.6533ZM18.1589 46.0797V50.8107H21.3296C22.6026 50.8107 23.6096 49.6873 23.6096 48.5093C23.6096 47.1817 22.6026 46.0797 21.3296 46.0797H18.1589Z" fill="white"/>
<path d="M28.4424 44.999C28.4424 44.372 28.9364 43.688 29.7344 43.688H34.121C36.591 43.688 38.814 45.341 38.814 48.5093C38.814 51.5113 36.591 53.1833 34.121 53.1833H30.9504V55.6913C30.9504 56.5273 30.4184 56.9999 29.7344 56.9999C29.1074 56.9999 28.4424 56.5273 28.4424 55.6913V44.999ZM30.948 46.0797V50.8107H34.1186C35.3916 50.8107 36.3986 49.6873 36.3986 48.5093C36.3986 47.1817 35.3916 46.0797 34.1186 46.0797H30.948Z" fill="white"/>
<path d="M44.7807 46.2341H41.4605C39.8075 46.2341 39.8075 43.8045 41.4605 43.8045H50.4403C52.1313 43.8045 52.1313 46.2341 50.4403 46.2341H47.2887V55.8244C47.2887 57.475 44.7807 57.5154 44.7807 55.8244V46.2341Z" fill="white"/>
<path d="M59.375 64.125H14.25V66.5H59.375C60.6813 66.5 61.75 65.4313 61.75 64.125V61.75C61.75 63.0562 60.6813 64.125 59.375 64.125Z" fill="#CAD1D8"/>
</svg>
