<svg width="88" height="88" viewBox="0 0 88 88" fill="none" xmlns="http://www.w3.org/2000/svg">
<path d="M80.0933 7.9061H46.5783V2.57807C46.5783 1.15309 45.4252 0 44.0002 0C42.5752 0 41.4221 1.15309 41.4221 2.57807V7.9061H7.90718C6.48219 7.9061 5.3291 9.05918 5.3291 10.4842V57.0614C5.3291 58.4864 6.48219 59.6395 7.90718 59.6395H31.059L26.0041 84.9142C25.7246 86.3115 26.6309 87.6685 28.0258 87.9479C29.4205 88.2324 30.78 87.3211 31.0595 85.9262L32.7072 77.686H55.293L56.9408 85.9262C57.2226 87.3417 58.6083 88.2291 59.9745 87.9479C61.3692 87.6685 62.2757 86.3115 61.9962 84.9142L56.9415 59.6395H80.0933C81.5182 59.6395 82.6713 58.4864 82.6713 57.0614V10.4842C82.6713 9.05918 81.5182 7.9061 80.0933 7.9061ZM33.7383 72.5298L35.8002 62.2175H52.2002L54.2622 72.5298H33.7383Z" fill="url(#paint0_linear)"/>
<path d="M2.57905 10.4843H85.4212C86.8462 10.4843 87.9993 9.33119 87.9993 7.9062C87.9993 6.48121 86.8462 5.32812 85.4212 5.32812H2.57905C1.15406 5.32812 0.000976562 6.48121 0.000976562 7.9062C0.000976562 9.33119 1.15406 10.4843 2.57905 10.4843ZM85.4212 57.0615H2.57905C1.15406 57.0615 0.000976562 58.2146 0.000976562 59.6396C0.000976562 61.0645 1.15406 62.2176 2.57905 62.2176H85.4212C86.8462 62.2176 87.9993 61.0645 87.9993 59.6396C87.9993 58.2146 86.8462 57.0615 85.4212 57.0615ZM69.7809 25.9527H62.0466V18.2185C62.0466 16.7935 60.8936 15.6404 59.4686 15.6404C52.3612 15.6404 46.5782 21.4234 46.5782 28.5308C46.5782 35.6382 52.3612 41.4212 59.4686 41.4212C66.576 41.4212 72.3589 35.6382 72.3589 28.5308C72.3589 27.1058 71.2058 25.9527 69.7809 25.9527ZM18.2194 20.7966C19.6432 20.7966 20.7974 19.6423 20.7974 18.2185C20.7974 16.7947 19.6432 15.6404 18.2194 15.6404C16.7956 15.6404 15.6413 16.7947 15.6413 18.2185C15.6413 19.6423 16.7956 20.7966 18.2194 20.7966ZM31.1097 18.2185C31.1097 16.7947 29.9555 15.6404 28.5317 15.6404C27.1079 15.6404 25.9536 16.7947 25.9536 18.2185C25.9536 19.6423 27.1079 20.7966 28.5317 20.7966C29.9555 20.7966 31.1097 19.6423 31.1097 18.2185ZM18.2194 31.1089H38.844C40.269 31.1089 41.422 29.9558 41.422 28.5308C41.422 27.1058 40.269 25.9527 38.844 25.9527H18.2194C16.7944 25.9527 15.6413 27.1058 15.6413 28.5308C15.6413 29.9558 16.7944 31.1089 18.2194 31.1089ZM18.2194 41.4212H38.844C40.269 41.4212 41.422 40.2681 41.422 38.8431C41.422 37.4181 40.269 36.265 38.844 36.265H18.2194C16.7944 36.265 15.6413 37.4181 15.6413 38.8431C15.6413 40.2681 16.7944 41.4212 18.2194 41.4212ZM18.2194 51.7335H69.7809C71.2058 51.7335 72.3589 50.5804 72.3589 49.1554C72.3589 47.7304 71.2058 46.5773 69.7809 46.5773H18.2194C16.7944 46.5773 15.6413 47.7304 15.6413 49.1554C15.6413 50.5804 16.7944 51.7335 18.2194 51.7335Z" fill="url(#paint1_linear)"/>
<defs>
<linearGradient id="paint0_linear" x1="44.0002" y1="88" x2="44.0002" y2="0" gradientUnits="userSpaceOnUse">
<stop stop-color="#A93AFF"/>
<stop offset="1" stop-color="#FF81FF"/>
</linearGradient>
<linearGradient id="paint1_linear" x1="44.0001" y1="62.2176" x2="44.0001" y2="5.32812" gradientUnits="userSpaceOnUse">
<stop stop-color="#FFBEF9"/>
<stop offset="1" stop-color="#FFF1FF"/>
</linearGradient>
</defs>
</svg>
