<svg width="21" height="21" viewBox="0 0 21 21" fill="none" xmlns="http://www.w3.org/2000/svg">
<path d="M20.5027 17.9616L15.6746 13.1332C16.495 11.8273 16.9711 10.2837 16.9711 8.62714C16.9711 3.94054 13.1718 0.141785 8.48536 0.141785C3.79893 0.141785 0 3.94054 0 8.62714C0 13.3139 3.79875 17.1123 8.48536 17.1123C10.2881 17.1123 11.9579 16.5487 13.332 15.591L18.1025 20.362C18.434 20.6931 18.8686 20.858 19.3026 20.858C19.7372 20.858 20.1712 20.6931 20.5032 20.362C21.1657 19.6988 21.1657 18.6246 20.5027 17.9616ZM8.48536 14.3632C5.31776 14.3632 2.74966 11.7953 2.74966 8.62749C2.74966 5.45972 5.31776 2.89162 8.48536 2.89162C11.6531 2.89162 14.2211 5.45972 14.2211 8.62749C14.2211 11.7953 11.6531 14.3632 8.48536 14.3632Z" fill="url(#paint0_linear)"/>
<defs>
<linearGradient id="paint0_linear" x1="0" y1="10.4999" x2="21" y2="10.4999" gradientUnits="userSpaceOnUse">
<stop stop-color="#FD0079"/>
<stop offset="1" stop-color="#FFD200"/>
</linearGradient>
</defs>
</svg>
