<svg width="88" height="88" viewBox="0 0 88 88" fill="none" xmlns="http://www.w3.org/2000/svg">
<path d="M80.2656 0H7.73438C3.46964 0 0 3.46964 0 7.73438V59.6406C0 63.9054 3.46964 67.375 7.73438 67.375H80.2656C84.5304 67.375 88 63.9054 88 59.6406V7.73438C88 3.46964 84.5304 0 80.2656 0ZM13.0625 77.6875H2.57812C1.15431 77.6875 0 78.8418 0 80.2656C0 81.6894 1.15431 82.8438 2.57812 82.8438H13.0625C14.4863 82.8438 15.6406 81.6894 15.6406 80.2656C15.6406 78.8418 14.4863 77.6875 13.0625 77.6875ZM85.4219 77.6875H33.6875C32.2637 77.6875 31.1094 78.8418 31.1094 80.2656C31.1094 81.6894 32.2637 82.8438 33.6875 82.8438H85.4219C86.8457 82.8438 88 81.6894 88 80.2656C88 78.8418 86.8457 77.6875 85.4219 77.6875Z" fill="url(#paint0_linear)"/>
<path d="M75.1094 10.3125H12.8906C11.4668 10.3125 10.3125 11.4668 10.3125 12.8906V54.4844C10.3125 55.9082 11.4668 57.0625 12.8906 57.0625H75.1094C76.5332 57.0625 77.6875 55.9082 77.6875 54.4844V12.8906C77.6875 11.4668 76.5332 10.3125 75.1094 10.3125ZM55.7425 35.8327L40.2738 46.1452C39.4816 46.6733 38.4641 46.7211 37.6272 46.273C36.789 45.8245 36.2656 44.9508 36.2656 44V23.375C36.2656 22.4242 36.789 21.5505 37.6272 21.102C38.4653 20.6534 39.4826 20.7023 40.2738 21.2298L55.7425 31.5423C56.4597 32.0205 56.8906 32.8254 56.8906 33.6875C56.8906 34.5496 56.4597 35.3545 55.7425 35.8327ZM18.2188 72.5312C13.954 72.5312 10.4844 76.0009 10.4844 80.2656C10.4844 84.5304 13.954 88 18.2188 88C22.4835 88 25.9531 84.5304 25.9531 80.2656C25.9531 76.0009 22.4835 72.5312 18.2188 72.5312Z" fill="url(#paint1_linear)"/>
<defs>
<linearGradient id="paint0_linear" x1="44" y1="82.8437" x2="44" y2="0" gradientUnits="userSpaceOnUse">
<stop stop-color="#FD3A84"/>
<stop offset="1" stop-color="#FFA68D"/>
</linearGradient>
<linearGradient id="paint1_linear" x1="44" y1="88" x2="44" y2="10.3125" gradientUnits="userSpaceOnUse">
<stop stop-color="#FFC2CC"/>
<stop offset="1" stop-color="#FFF2F4"/>
</linearGradient>
</defs>
</svg>
