<svg width="76" height="76" viewBox="0 0 76 76" fill="none" xmlns="http://www.w3.org/2000/svg">
<path d="M19 0C16.3875 0 14.25 2.1375 14.25 4.75V71.25C14.25 73.8625 16.3875 76 19 76H66.5C69.1125 76 71.25 73.8625 71.25 71.25V19L52.25 0H19Z" fill="#E2E5E7"/>
<path d="M57 19H71.25L52.25 0V14.25C52.25 16.8625 54.3875 19 57 19Z" fill="#B0B7BD"/>
<path d="M71.25 33.25L57 19H71.25V33.25Z" fill="#CAD1D8"/>
<path d="M61.75 61.75C61.75 63.0562 60.6813 64.125 59.375 64.125H7.125C5.81875 64.125 4.75 63.0562 4.75 61.75V38C4.75 36.6938 5.81875 35.625 7.125 35.625H59.375C60.6813 35.625 61.75 36.6938 61.75 38V61.75Z" fill="#84BD5A"/>
<path d="M21.4246 48.419L24.7282 44.2794C25.7162 42.9874 27.6352 44.638 26.5522 45.873C25.4146 47.222 24.2176 48.685 23.0776 50.1836L26.9512 55.0073C27.9962 56.4323 25.9086 57.7979 24.8826 56.3919L21.3866 51.9103L17.9499 56.4893C16.9809 57.8739 14.8339 56.3183 15.9169 55.0263L19.7336 50.1836C18.5366 48.6826 17.3776 47.222 16.2209 45.873C15.0263 44.448 17.2469 42.9874 18.1209 44.3198L21.4246 48.419Z" fill="white"/>
<path d="M29.2949 44.9991C29.2949 44.3721 29.8269 43.8401 30.4919 43.8401C31.0999 43.8401 31.6129 44.3745 31.6129 44.9991V54.5133H36.7785C38.6382 54.5133 38.6785 57 36.7785 57H30.4943C29.8293 57 29.2973 56.5273 29.2973 55.8433V44.9991H29.2949Z" fill="white"/>
<path d="M40.3797 46.7091C40.8167 43.0231 46.3789 42.3605 49.0009 44.3745C50.2929 45.4171 48.9249 47.0701 47.7849 46.2341C46.3789 45.3435 43.1893 44.9255 42.7903 46.8967C42.2773 50.0127 50.5376 48.2291 50.4046 53.2807C50.2716 58.1043 43.2843 58.216 40.6623 56.0523C40.0329 55.5393 40.0543 54.7057 40.3963 54.1903C40.8903 53.6987 41.4389 53.5277 42.0873 54.0597C43.6429 55.1213 47.6519 55.9193 47.9346 53.2213C47.6899 50.4141 39.7907 52.1027 40.3797 46.7091Z" fill="white"/>
<path d="M59.375 64.125H14.25V66.5H59.375C60.6813 66.5 61.75 65.4313 61.75 64.125V61.75C61.75 63.0562 60.6813 64.125 59.375 64.125Z" fill="#CAD1D8"/>
</svg>
