<svg width="190" height="190" viewBox="0 0 190 190" fill="none" xmlns="http://www.w3.org/2000/svg">
<g clip-path="url(#clip0)">
<path d="M189.6 88.9001C189.6 88.8201 189.6 88.7501 189.6 88.6701C189.6 88.0701 189.52 87.4601 189.47 86.8501C189.47 86.7801 189.47 86.7001 189.47 86.6301V86.3501C187.285 62.0109 175.795 39.4528 157.392 23.3747C138.989 7.29654 115.093 -1.06204 90.6806 0.0399844C66.2684 1.14201 43.2225 11.6197 26.3432 29.2906C9.46391 46.9614 0.0526886 70.463 0.0698476 94.9001C0.0698476 96.9001 0.139842 98.9001 0.259842 100.9C0.264814 100.953 0.264814 101.007 0.259842 101.06C0.259842 101.7 0.349842 102.34 0.399842 102.98C0.399842 103.05 0.399842 103.13 0.399842 103.2C0.394286 103.247 0.394286 103.294 0.399842 103.34C2.6611 127.607 14.1729 150.073 32.5493 166.083C50.9258 182.092 74.7576 190.417 99.1055 189.332C123.453 188.247 146.45 177.835 163.329 160.254C180.209 142.673 189.676 119.272 189.77 94.9001C189.77 92.8801 189.77 90.8801 189.6 88.9001ZM73.2299 142.33C72.5698 142.66 71.9199 142.97 71.2299 143.27L70.1698 143.76C59.4798 148.55 51.3699 148.91 47.2898 144.76C42.5698 139.94 43.6698 129.4 50.2898 115.84C62.9698 89.8401 92.1698 59.8901 116.4 47.6401L116.54 47.5801C117.19 47.2501 117.83 46.9401 118.47 46.6401L119.55 46.1501C130.23 41.3701 138.34 41.0001 142.42 45.1501C147.14 49.9701 146.04 60.5101 139.42 74.0801C126.74 100.08 97.5298 130.08 73.2998 142.27L73.2299 142.33ZM49.8298 115.58C43.0998 129.37 42.0398 140.14 46.9398 145.14C48.9398 147.14 51.8098 148.14 55.4398 148.14H55.7698C50.2498 148.8 46.0398 147.71 43.5498 144.86C38.7298 139.36 40.5499 127.86 48.6498 113.28C58.1498 96.1201 74.4899 77.8201 91.6498 63.9701C74.5798 78.5001 58.4198 97.9401 49.8298 115.53V115.58ZM139.96 74.3201C146.69 60.5301 147.75 49.7601 142.86 44.7701C140.79 42.6601 137.75 41.6601 133.94 41.7701C134.935 41.6425 135.937 41.5757 136.94 41.5701C141.01 41.5701 144.16 42.7301 146.18 45.0401C151 50.5401 149.18 62.0401 141.09 76.6201C131.58 93.7901 115.24 112.08 98.0899 125.93C115.21 111.33 131.37 91.8601 139.96 74.2701V74.3201ZM48.1998 113.04C40.0198 127.83 38.1998 139.57 43.1998 145.26C45.1498 147.48 48.0798 148.68 51.8098 148.87C46.3398 149.15 42.2298 147.76 39.8598 144.73C34.9698 138.46 37.6798 125.96 47.2998 110.43C58.4898 92.3701 76.8798 73.7101 95.5498 60.2701C76.8398 74.4301 58.4998 94.3301 48.1998 112.99V113.04ZM141.59 76.8601C149.77 62.0801 151.59 50.3301 146.59 44.6401C144.59 42.4101 141.68 41.2101 137.93 41.0301C138.41 41.0301 138.87 41.0301 139.32 41.0301C144.13 41.0301 147.76 42.4301 149.93 45.2101C154.83 51.4801 152.12 63.9801 142.49 79.5101C131.3 97.5701 112.91 116.23 94.2398 129.67C112.96 115.38 131.29 95.4301 141.59 76.8101V76.8601ZM46.7698 110.09C37.0198 125.83 34.3199 138.56 39.3699 145.03C41.2598 147.45 44.2099 148.86 48.0098 149.27C42.4398 149.27 38.3698 147.53 36.0598 144.19C31.1298 137.06 34.7898 123.55 46.0598 107.13C58.9798 88.3401 79.3598 69.5901 99.4298 56.7901C79.3198 70.4101 58.8698 90.6001 46.7698 110.09ZM142.98 79.7101C152.73 63.9701 155.43 51.2401 150.38 44.7801C148.49 42.3601 145.56 40.9501 141.78 40.5301C147.33 40.5301 151.39 42.2801 153.69 45.6101C158.62 52.7401 154.96 66.2501 143.69 82.6701C130.76 101.46 110.38 120.21 90.3098 133.01C110.47 119.39 130.92 99.2001 143 79.7101H142.98ZM45.6298 106.81C34.1898 123.44 30.5398 137.18 35.6298 144.5C37.5128 147.091 40.3399 148.837 43.4998 149.36C38.2498 148.82 34.4998 146.79 32.3598 143.36C27.5398 135.36 32.3598 120.5 45.2398 103.53C60.0398 84.0301 82.5598 65.3001 104.05 53.3601C82.3898 66.1401 59.6498 86.4601 45.6498 106.81H45.6298ZM144.12 82.9901C155.56 66.3601 159.21 52.6201 154.12 45.3001C152.286 42.7675 149.546 41.0408 146.47 40.4801C151.6 41.0601 155.32 43.0601 157.39 46.4801C162.21 54.4801 157.39 69.3301 144.51 86.3101C129.77 105.8 107.24 124.53 85.7698 136.47C107.4 123.67 130.14 103.33 144.14 82.9901H144.12ZM44.7698 103.16C31.5498 120.58 26.8398 135.33 31.8598 143.61C33.5429 146.294 36.1737 148.246 39.2299 149.08C34.1698 148.08 30.5798 145.73 28.6598 142.08C23.9498 133.08 29.9398 117.15 44.6598 99.5001C61.4098 79.4201 86.0798 60.9601 108.89 50.1501C85.8598 61.8501 60.7698 82.0501 44.7698 103.16ZM144.98 86.6401C158.21 69.2201 162.91 54.4801 157.89 46.1901C156.201 43.503 153.563 41.5502 150.5 40.7201C155.57 41.7201 159.17 44.0701 161.09 47.7201C165.8 56.7201 159.82 72.6401 145.09 90.2901C128.34 110.38 103.67 128.83 80.8699 139.64C103.93 127.95 128.98 107.75 145 86.6401H144.98ZM44.2498 99.1201C29.3798 116.95 23.3698 133.12 28.1898 142.31C29.6846 145.107 32.1328 147.275 35.0899 148.42C30.2099 146.97 26.8098 144.25 25.0898 140.34C20.6198 130.17 27.8698 113.25 44.4898 95.0701C63.2098 74.6101 89.9098 56.7401 113.85 47.2901C89.5798 57.6801 62.3198 77.4601 44.2498 99.1201ZM145.54 90.6801C160.41 72.8501 166.42 56.6801 161.6 47.4901C160.1 44.6897 157.644 42.5214 154.68 41.3801C159.57 42.8301 162.98 45.5501 164.68 49.4701C169.15 59.6301 161.9 76.5501 145.28 94.7301C126.55 115.2 99.8399 133.08 75.8998 142.52C100.19 132.13 127.47 112.33 145.54 90.6801ZM44.0698 94.6801C27.2898 113.02 20.0098 130.16 24.5798 140.54C25.8872 143.466 28.1512 145.861 30.9998 147.33C26.3098 145.4 23.0998 142.33 21.5998 138.09C17.4898 126.65 26.1198 108.78 44.6698 90.2701C65.5398 69.4301 94.4899 52.2701 119.54 44.5901C94.0898 53.3301 64.3898 72.4901 44.0698 94.7001V94.6801ZM145.72 95.0801C162.5 76.7401 169.79 59.6001 165.22 49.2201C163.906 46.2948 161.639 43.9012 158.79 42.4301C163.48 44.3601 166.69 47.4301 168.19 51.6701C172.3 63.1101 163.68 80.9901 145.13 99.5001C124.21 120.36 95.1998 137.5 70.1298 145.22C95.5998 136.55 125.37 117.33 145.77 95.1001L145.72 95.0801ZM44.2698 89.8901C25.5698 108.56 16.8898 126.65 21.0698 138.3C22.1784 141.369 24.2431 144.002 26.9598 145.81C24.862 144.76 23.0054 143.285 21.5077 141.479C20.01 139.673 18.904 137.576 18.2598 135.32C14.7098 122.51 24.8098 103.74 45.2598 85.1201C68.2598 64.1701 99.2598 48.1901 125.18 42.4401C98.7699 49.1901 66.8398 67.3801 44.2698 89.8901ZM145.52 99.8901C164.22 81.2201 172.9 63.1301 168.72 51.4801C167.612 48.4131 165.551 45.7814 162.84 43.9701C164.937 45.0231 166.792 46.5001 168.287 48.3076C169.783 50.115 170.887 52.2135 171.53 54.4701C175.08 67.2801 164.99 86.0401 144.53 104.66C121.53 125.58 90.5998 141.55 64.7098 147.32C91.0598 140.57 122.98 122.4 145.52 99.9101V99.8901ZM44.8898 84.6901C24.2698 103.45 14.1098 122.43 17.7198 135.44C18.6074 138.682 20.4508 141.581 23.0098 143.76C20.9747 142.392 19.2293 140.636 17.8737 138.592C16.5181 136.548 15.5789 134.257 15.1098 131.85C12.3398 117.58 24.0098 98.0401 46.3198 79.5601C71.5398 58.6701 104.57 44.1401 131.14 40.7101C104.03 45.1801 69.7698 62.0501 44.8898 84.7101V84.6901ZM144.89 105.07C165.52 86.3301 175.68 67.3301 172.07 54.3301C171.182 51.0883 169.339 48.1891 166.78 46.0101C168.817 47.3767 170.563 49.1325 171.919 51.1765C173.275 53.2204 174.213 55.5122 174.68 57.9201C177.45 72.1901 165.78 91.7401 143.47 110.21C118.23 131.11 85.1699 145.65 58.5899 149.07C85.7099 144.64 119.98 127.77 144.9 105.09L144.89 105.07ZM45.9498 79.1301C23.4798 97.7401 11.7498 117.49 14.5498 131.96C15.2043 135.409 16.8156 138.604 19.1998 141.18C15.2473 137.716 12.7475 132.887 12.1998 127.66C10.4798 111.89 23.7998 91.6601 47.8298 73.6601C75.2898 53.0501 110.25 40.3501 137.23 39.5701C109.65 41.4001 73.2398 56.5601 45.9598 79.1501L45.9498 79.1301ZM143.82 110.63C166.29 92.0201 178.02 72.2701 175.22 57.8101C174.568 54.3577 172.956 51.1588 170.57 48.5801C174.522 52.0445 177.022 56.8727 177.57 62.1001C179.29 77.8701 165.97 98.1001 141.94 116.1C114.65 136.59 79.9398 149.25 53.0198 150.16C80.5598 148.23 116.71 133.11 143.83 110.65L143.82 110.63ZM47.4998 73.2201C23.3098 91.3801 9.90984 111.75 11.6598 127.72C12.0378 131.45 13.4011 135.011 15.6098 138.04C11.8426 133.776 9.7343 128.3 9.66985 122.61C9.27985 105.35 24.3099 84.7101 49.8699 67.4201C76.9499 49.1101 109.87 38.8001 136.03 38.8001C138.35 38.8001 140.62 38.8801 142.82 39.0401C115.09 38.0901 76.9799 51.1201 47.5098 73.2401L47.4998 73.2201ZM49.8898 150.77C77.3398 150.77 113.83 137.89 142.27 116.54C166.46 98.3801 179.86 78.0101 178.11 62.0401C177.731 58.3125 176.372 54.7517 174.17 51.7201C177.934 55.985 180.039 61.4618 180.1 67.1501C180.49 84.4201 165.46 105.05 139.9 122.34C110.5 142.23 74.1998 152.66 47.1898 150.72C48.0898 150.77 48.9898 150.79 49.8998 150.79L49.8898 150.77ZM49.5598 66.9601C23.8398 84.3601 8.71984 105.17 9.11984 122.63C9.17497 126.732 10.258 130.755 12.2698 134.33C8.73903 129.132 7.09125 122.883 7.59985 116.62C8.85985 97.9301 25.5998 77.1001 52.4598 60.8801C77.6398 45.6601 106.81 37.6101 131.21 37.6101C137.134 37.5765 143.048 38.1123 148.87 39.2101C121.26 34.9901 81.3798 45.4701 49.5698 66.9801L49.5598 66.9601ZM53.7698 151.53C80.0298 151.53 113.09 141.19 140.25 122.82C165.97 105.42 181.09 84.6101 180.7 67.1601C180.642 63.0647 179.559 59.0491 177.55 55.4801C181.087 60.6716 182.735 66.9195 182.22 73.1801C180.96 91.8701 164.22 112.71 137.36 128.92C105.82 147.99 68.0098 155.81 41.1798 150.64C45.349 151.246 49.557 151.543 53.7698 151.53ZM52.1998 60.4001C25.1998 76.7101 8.33984 97.7201 7.07984 116.58C6.72872 121.125 7.4693 125.689 9.23985 129.89C6.01214 123.62 4.93351 116.463 6.16985 109.52C9.34985 89.5901 27.8298 68.8401 55.6199 54.0201C78.3399 41.8901 103.53 35.7901 125.62 35.7901C135.397 35.6643 145.133 37.0782 154.47 39.9801C127.27 32.3801 86.0998 39.9001 52.1698 60.4001H52.1998ZM58.6199 152.73C83.1299 152.73 112.4 144.66 137.62 129.4C164.62 113.09 181.48 92.0901 182.74 73.2201C183.089 68.6747 182.349 64.1116 180.58 59.9101C183.817 66.1952 184.896 73.371 183.65 80.3301C180.48 100.25 161.99 121 134.2 135.83C100.84 153.63 62.1398 158.44 35.8498 150.01C43.2778 151.91 50.9234 152.825 58.5899 152.73H58.6199ZM55.3598 53.5201C27.3898 68.4401 8.76984 89.3301 5.58984 109.43C4.72511 114.498 5.02606 119.696 6.46984 124.63C3.69536 117.131 3.34557 108.949 5.46984 101.24C10.7698 80.3301 30.9298 60.0301 59.3098 46.8801C78.1583 38.0898 98.6732 33.4453 119.47 33.2601C134.53 33.2601 148.47 36.0001 159.59 41.3401C133.25 30.2201 91.1998 34.3801 55.3298 53.5201H55.3598ZM64.2798 154.52C86.4398 154.52 111.71 148.4 134.49 136.25C162.4 121.33 181 100.47 184.2 80.3301C185.068 75.2664 184.771 70.0714 183.33 65.1401C186.1 72.6406 186.449 80.8205 184.33 88.5301C178.99 109.41 158.86 129.73 130.48 142.88C95.2899 159.18 55.8298 160.56 30.3998 148.5C39.9799 152.54 51.5998 154.55 64.2498 154.55L64.2798 154.52ZM59.1098 46.3501C30.5698 59.5701 10.3298 80.0201 4.94984 101.07C3.41943 106.802 3.17357 112.802 4.22984 118.64C2.00656 109.721 2.54358 100.337 5.76984 91.7301C13.4098 70.2501 35.0398 50.7301 63.6298 39.5101C79.4644 33.2565 96.3254 30.0078 113.35 29.9301C132.99 29.9301 151.02 34.5601 164.35 43.2401C139.12 28.5101 96.6498 28.9701 59.0798 46.3801L59.1098 46.3501ZM70.3898 157.05C91.2516 156.872 111.832 152.217 130.74 143.4C159.28 130.18 179.52 109.72 184.9 88.6701C186.43 82.9378 186.676 76.9383 185.62 71.1001C187.837 80.0359 187.286 89.4345 184.04 98.0501C176.4 119.52 154.77 139.05 126.18 150.27C89.5499 164.65 49.9298 162.32 25.6798 146.65C37.5298 153.55 53.1898 157.08 70.3598 157.08L70.3898 157.05ZM63.4698 38.9601C34.7298 50.2401 12.9798 69.8901 5.28984 91.5101C2.85678 98.1054 1.9109 105.157 2.51984 112.16C0.899845 102 2.51985 91.4001 7.31985 80.9501C17.3198 59.3501 40.2099 41.0101 68.6199 31.9001C81.2557 27.8329 94.4455 25.7482 107.72 25.7201C132.06 25.7201 154.32 33.0101 169.21 46.0001C145.43 27.3301 102.71 23.5701 63.4398 38.9901L63.4698 38.9601ZM76.4698 160.39C93.5524 160.313 110.471 157.054 126.36 150.78C155.1 139.5 176.85 119.86 184.55 98.2301C186.974 91.6362 187.917 84.5893 187.31 77.5901C188.93 87.7401 187.31 98.3501 182.51 108.79C172.51 130.39 149.62 148.73 121.21 157.79C108.575 161.861 95.3847 163.949 82.1098 163.98C57.8698 163.98 35.6998 156.75 20.8098 143.86C34.5198 154.67 54.4898 160.42 76.4598 160.42L76.4698 160.39ZM68.4698 31.3901C39.9198 40.5501 16.8798 59.0001 6.82984 80.7401C3.25029 88.2673 1.38548 96.4951 1.36984 104.83C0.579843 92.8301 3.55984 80.6601 10.2298 69.0701C22.6298 47.5201 45.9599 31.1601 74.2299 24.1901C83.5969 21.8718 93.2102 20.6966 102.86 20.6901C131.65 20.6901 157.86 31.3801 173.51 49.3501C151.53 26.5801 109.09 18.3301 68.4198 31.4001L68.4698 31.3901ZM82.1698 164.6C95.4952 164.568 108.735 162.473 121.42 158.39C149.97 149.23 173.02 130.79 183.06 109.04C186.639 101.513 188.504 93.2851 188.52 84.9501C189.31 96.9501 186.33 109.12 179.66 120.71C167.26 142.26 143.93 158.62 115.66 165.59C106.293 167.911 96.6799 169.09 87.0298 169.1C58.3498 169.1 32.2598 158.48 16.5598 140.63C31.3598 155.94 55.5098 164.61 82.1199 164.61L82.1698 164.6ZM74.0998 23.6501C45.6798 30.6501 22.2198 47.1101 9.74985 68.8001C4.8951 77.0252 1.88567 86.207 0.929848 95.7101C1.59825 81.482 6.35874 67.7492 14.6398 56.1601C29.0998 35.4901 53.0999 20.9801 80.4799 16.3501C86.615 15.3081 92.8268 14.7829 99.0498 14.7801C131.99 14.7801 161.62 29.6501 177.3 53.1701C157.43 26.3301 115.77 13.3801 74.0498 23.6601L74.0998 23.6501ZM87.0298 169.65C96.7163 169.643 106.366 168.465 115.77 166.14C144.19 159.14 167.65 142.68 180.13 120.99C184.979 112.763 187.985 103.582 188.94 94.0801C188.27 108.306 183.514 122.038 175.24 133.63C160.77 154.33 136.77 168.81 109.36 173.44C103.218 174.483 96.9995 175.008 90.7698 175.01C57.8598 175.01 28.2498 160.17 12.5598 136.69C27.8198 157.26 55.8899 169.66 86.9799 169.66L87.0298 169.65ZM80.3399 15.8101C52.8099 20.4701 28.6798 35.0601 14.1298 55.8101C7.21324 65.5585 2.7004 76.8046 0.959847 88.6301C4.83985 47.1101 40.8198 12.4901 87.3298 8.42007C90.3832 8.14674 93.4198 8.01341 96.4398 8.02008C117.952 7.88609 138.902 14.888 156.01 27.9301C166.581 35.9901 175.139 46.3928 181.01 58.3201C163.88 26.9301 123.18 8.56008 80.3399 15.8101ZM90.7698 175.57C97.0197 175.564 103.258 175.035 109.42 173.99C136.95 169.33 161.08 154.74 175.63 133.99C182.589 124.194 187.117 112.882 188.84 100.99C187.24 118.99 179.61 136.1 166.68 150.28C150.35 168.17 127.54 179.23 102.43 181.42C99.3965 181.687 96.3965 181.82 93.4298 181.82C56.5498 181.82 24.0498 161.88 9.17985 132.29C24.0198 158.59 55.5198 175.57 90.7698 175.57ZM94.8699 0.570075C114.13 0.593801 132.923 6.50127 148.732 17.5014C164.542 28.5016 176.613 44.0693 183.33 62.1201C177.477 48.4492 168.173 36.5334 156.33 27.5401C137.04 12.6801 112.51 5.71007 87.2598 7.92007C44.2598 11.6801 10.1298 41.4901 1.91985 78.7701C5.74828 56.8818 17.1682 37.043 34.1729 22.7395C51.1777 8.43598 72.6793 0.582885 94.8998 0.56008L94.8699 0.570075ZM94.8699 189.25C75.4654 189.231 56.5375 183.237 40.6588 172.083C24.7802 160.93 12.7208 145.157 6.11984 126.91C19.6298 159.73 54.0598 182.31 93.4198 182.3C96.4198 182.3 99.4199 182.17 102.48 181.91C127.72 179.7 150.67 168.57 167.09 150.59C177.252 139.613 184.365 126.168 187.72 111.59C183.779 133.349 172.332 153.036 155.372 167.224C138.411 181.412 117.012 189.203 94.8998 189.24L94.8699 189.25Z" fill="url(#paint0_linear)"/>
</g>
<defs>
<linearGradient id="paint0_linear" x1="-0.000152359" y1="94.9001" x2="189.79" y2="94.9001" gradientUnits="userSpaceOnUse">
<stop stop-color="#3DDEED"/>
<stop offset="1" stop-color="#CB00DD"/>
</linearGradient>
<clipPath id="clip0">
<rect width="189.79" height="189.79" fill="white"/>
</clipPath>
</defs>
</svg>
