<svg width="191" height="191" viewBox="0 0 191 191" fill="none" xmlns="http://www.w3.org/2000/svg">
<path d="M190.762 94.9219L96.0656 0.22985C95.9093 0.0888069 95.7062 0.0107422 95.4957 0.0107422C95.2852 0.0107422 95.0822 0.0888069 94.926 0.22985L0.238128 94.9219C0.0947008 95.0787 0.0151367 95.2835 0.0151367 95.4959C0.0151367 95.7084 0.0947008 95.9133 0.238128 96.07L94.926 190.762C95.0793 190.91 95.2827 190.995 95.4957 191C95.6018 191.001 95.707 190.98 95.8048 190.939C95.9027 190.898 95.9914 190.838 96.0656 190.762L190.762 96.07C190.905 95.9133 190.985 95.7084 190.985 95.4959C190.985 95.2835 190.905 95.0787 190.762 94.9219ZM103.107 182.521C103.078 182.525 103.049 182.523 103.021 182.514C102.993 182.505 102.967 182.49 102.946 182.47L18.9478 111.982L109.001 175.037C109.109 175.111 109.235 175.155 109.366 175.164L103.26 182.444C103.219 182.483 103.164 182.504 103.107 182.504V182.521ZM8.5469 102.95L79.0228 18.9488L15.9882 108.997C15.9137 109.108 15.8751 109.238 15.8777 109.371L8.58942 103.257C8.56585 103.24 8.54597 103.218 8.53097 103.194C8.51597 103.169 8.50617 103.141 8.50219 103.113C8.49821 103.084 8.50013 103.055 8.50782 103.027C8.51551 102.999 8.5288 102.973 8.5469 102.95ZM87.9013 8.48797C87.9539 8.48791 88.005 8.50592 88.0459 8.53899L172.044 79.0265L81.9993 15.9722C81.8885 15.8975 81.7587 15.8561 81.6251 15.8531L87.7397 8.56451C87.7595 8.54078 87.7842 8.52164 87.8121 8.50842C87.84 8.4952 87.8705 8.48823 87.9013 8.48797ZM109.443 174.654C109.402 174.671 109.356 174.671 109.315 174.654L27.0865 117.077L114.239 167.399C114.337 167.449 114.444 167.478 114.554 167.485L109.536 174.535C109.53 174.56 109.518 174.583 109.502 174.604C109.486 174.624 109.466 174.641 109.443 174.654ZM16.3879 109.448C16.3781 109.427 16.3729 109.403 16.3729 109.38C16.3729 109.356 16.3781 109.333 16.3879 109.312L73.9627 27.0794L23.6422 114.27C23.5893 114.37 23.5602 114.481 23.5571 114.593L16.4305 109.593C16.4127 109.573 16.3997 109.55 16.3923 109.525C16.385 109.5 16.3835 109.474 16.3879 109.448ZM81.5486 16.3889C81.5822 16.3815 81.617 16.3815 81.6506 16.3889L163.88 73.9661L76.7606 23.6775C76.6623 23.6209 76.5508 23.5916 76.4374 23.5924L81.472 16.4654C81.4905 16.4338 81.5169 16.4074 81.5486 16.3889ZM114.639 166.864C114.603 166.877 114.564 166.877 114.529 166.864L34.9785 120.938L118.441 159.856C118.523 159.896 118.613 159.916 118.704 159.915L114.724 166.813C114.703 166.84 114.673 166.858 114.639 166.864ZM24.1525 114.508L70.0761 34.9633L31.1601 118.421C31.1193 118.505 31.0989 118.599 31.1005 118.693L24.2035 114.704C24.1866 114.695 24.1717 114.683 24.1598 114.668C24.1479 114.653 24.1393 114.636 24.1344 114.618C24.1296 114.599 24.1287 114.58 24.1319 114.561C24.135 114.542 24.142 114.524 24.1525 114.508ZM76.4204 24.1197H76.4885L156.03 70.0455L72.5764 31.1276C72.4913 31.0877 72.3983 31.0674 72.3043 31.0681L76.2843 24.1708C76.3015 24.1522 76.3227 24.1379 76.3463 24.1291C76.3699 24.1202 76.3953 24.117 76.4204 24.1197ZM118.653 159.345L42.5134 123.838L121.655 152.652C121.726 152.664 121.797 152.664 121.868 152.652L118.789 159.26C118.786 159.275 118.78 159.289 118.772 159.301C118.763 159.314 118.752 159.324 118.74 159.332C118.727 159.34 118.713 159.345 118.698 159.348C118.683 159.35 118.668 159.349 118.653 159.345ZM31.6533 118.65L67.1506 42.5155L38.3463 121.661C38.3334 121.734 38.3334 121.809 38.3463 121.882L31.7384 118.803C31.7224 118.799 31.7074 118.792 31.6943 118.782C31.6812 118.772 31.6703 118.76 31.6623 118.745C31.6543 118.731 31.6494 118.715 31.6478 118.699C31.6463 118.682 31.6482 118.666 31.6533 118.65ZM72.2958 31.6379H72.3468L148.478 67.1453L69.3363 38.3397C69.2666 38.3092 69.1911 38.2947 69.1151 38.2972L72.1937 31.689C72.2051 31.6726 72.2204 31.6593 72.2382 31.6504C72.2561 31.6415 72.2759 31.6372 72.2958 31.6379ZM121.842 152.133L49.6911 125.871L124.053 145.797H124.207L121.919 152.074C121.915 152.091 121.905 152.106 121.891 152.117C121.877 152.128 121.86 152.134 121.842 152.133ZM38.8565 121.848L65.1181 49.685L45.1923 124.051C45.1881 124.11 45.1881 124.17 45.1923 124.229L38.9501 121.925C38.9389 121.926 38.9276 121.925 38.9168 121.921C38.9061 121.918 38.8961 121.913 38.8874 121.906C38.8787 121.899 38.8714 121.89 38.8662 121.88C38.8609 121.87 38.8576 121.859 38.8565 121.848ZM45.7196 124.195L63.8764 56.4378L51.7067 125.701C51.7024 125.746 51.7024 125.791 51.7067 125.837L45.7536 124.255C45.7496 124.245 45.7476 124.235 45.7476 124.225C45.7476 124.215 45.7496 124.205 45.7536 124.195H45.7196ZM127.115 127.095H73.682L127.047 122.426H127.107L127.115 127.095ZM63.885 63.8965H117.122L63.9445 68.5486H63.885V63.8965ZM88.9984 85.5496L89.2365 84.6566L99.4418 87.3952L88.9984 85.5496ZM104.902 88.909L102.087 104.915L86.0899 102.091L88.9134 86.0939L104.902 88.909ZM85.5541 101.998L84.6526 101.76L87.3996 91.554L85.5541 101.998ZM101.993 105.442L101.755 106.335L91.5497 103.597L101.993 105.442ZM105.446 88.9941L106.339 89.2407L103.592 99.4464L105.446 88.9941ZM89.3726 84.1293L89.7298 83.1343L101.083 87.2676L89.3726 84.1293ZM84.1254 101.624L83.1729 101.258L87.2975 89.9041L84.1254 101.624ZM101.627 106.863L101.262 107.858L89.9084 103.724L101.627 106.863ZM106.866 89.3683L107.861 89.734L103.728 101.088L106.866 89.3683ZM89.9084 82.6155L90.4186 81.5354L102.827 87.3186L89.9084 82.6155ZM82.6201 101.088L81.5316 100.578L87.323 88.1606L82.6201 101.088ZM101.083 108.376L100.581 109.457L88.165 103.673L101.083 108.376ZM108.371 89.9041L109.46 90.4144L103.668 102.831L108.371 89.9041ZM90.6312 81.0336L91.3116 79.86L104.689 87.5908L90.6312 81.0336ZM81.0383 100.365L79.8647 99.6846L87.5952 86.298L81.0383 100.365ZM100.36 109.958L99.6884 111.132L86.3025 103.401L100.36 109.958ZM109.962 90.6355L111.127 91.3074L103.405 104.694L109.962 90.6355ZM91.5667 79.4007L92.4172 78.159L106.645 88.1181L91.5667 79.4007ZM79.3799 99.4464L78.1383 98.596L88.0969 84.376L79.3799 99.4464ZM99.4333 111.625L98.5828 112.875L84.3635 102.908L99.4333 111.625ZM111.612 91.5795L112.853 92.43L102.895 106.65L111.612 91.5795ZM92.7318 77.6997L93.8204 76.39L108.686 88.875L92.7318 77.6997ZM77.6791 98.2813L76.3694 97.1672L88.8708 82.2753L77.6791 98.2813ZM98.2597 113.326L97.1711 114.636L82.3225 102.117L98.2597 113.326ZM113.312 92.7447L114.639 93.8588L102.146 108.751L113.312 92.7447ZM94.1521 75.9648L95.4957 74.621L110.804 89.9296L94.1521 75.9648ZM75.9442 96.8355L74.6005 95.5002L89.9084 80.1916L75.9442 96.8355ZM96.8395 115.053L95.4957 116.388L80.1879 101.079L96.8395 115.053ZM115.047 94.1565L116.391 95.5002L101.083 110.809L115.047 94.1565ZM95.8615 74.1958L97.4773 72.835L112.998 91.3074L95.8615 74.1958ZM74.2008 95.1345L72.8401 93.5101L91.3371 77.9889L74.2008 95.1345ZM95.1301 116.822L93.5142 118.182L77.9937 99.6846L95.1301 116.822ZM116.799 95.8829L118.151 97.5073L99.6544 113.029L116.799 95.8829ZM97.877 72.4863L99.799 71.1426L115.175 93.1104L97.877 72.4863ZM72.4659 93.1444L71.1137 91.2223L93.0805 75.8457L72.4659 93.1444ZM93.123 118.523L91.201 119.866L75.8166 97.9071L93.123 118.523ZM118.534 97.8645L119.878 99.7866L97.911 115.163L118.534 97.8645ZM100.182 70.7684L102.435 69.4756L117.292 95.2025L100.182 70.7684ZM70.7395 90.7716L69.4383 88.5263L95.1726 73.6685L70.7395 90.7716ZM90.7758 120.224L88.5222 121.525L73.665 95.7894L90.7758 120.224ZM120.218 100.22L121.519 102.466L95.7934 117.323L120.218 100.22ZM102.92 69.195L105.522 67.9788L119.41 97.7455L102.92 69.195ZM69.1662 88.0756L67.9501 85.4646L97.7154 71.5848L69.1662 88.0756ZM88.0714 121.831L85.4691 123.047L71.5814 93.2805L88.0714 121.831ZM121.834 102.916L123.05 105.527L93.2846 119.416L121.834 102.916ZM105.999 67.6726L108.975 66.584L121.392 100.663L105.999 67.6726ZM67.6694 84.9968L66.5893 82.0117L100.683 69.6032L67.6694 84.9968ZM85.0013 123.328L82.0163 124.408L69.6084 90.3123L85.0013 123.328ZM123.322 105.995L124.411 108.98L90.3166 121.389L123.322 105.995ZM109.468 66.3459L112.87 65.4359L123.203 104.065L109.468 66.3459ZM66.3427 81.5184L65.4412 78.1165L104.077 67.7577L66.3427 81.5184ZM81.523 124.646L78.1213 125.556L67.763 86.9104L81.523 124.646ZM124.649 109.474L125.559 112.875L86.9148 123.209L124.649 109.474ZM113.363 65.2488L117.156 64.5769L124.81 107.951L113.363 65.2488ZM65.2371 77.6487L64.5653 73.8556L107.938 66.2013L65.2371 77.6487ZM77.6365 125.777L73.8351 126.449L66.1811 83.0748L77.6365 125.777ZM125.763 113.377L126.426 117.17L83.0538 124.825L125.763 113.377ZM117.684 64.4323L121.936 64.0581L126.188 112.705L117.684 64.4323ZM64.4122 73.3283H64.3612L63.987 69.0759L112.292 64.8235L64.4122 73.3283ZM73.3163 126.602L69.0641 126.976L64.7694 78.2951L73.3163 126.602ZM126.545 117.672H126.596L126.97 121.925L78.2914 126.177L126.545 117.672ZM122.404 63.9305C122.403 63.9164 122.403 63.9022 122.404 63.888H127.064V117.306L122.404 63.9305ZM63.8509 73.6685L68.5539 127.027C68.5539 127.027 68.5539 127.027 68.5539 127.087H63.885L63.8509 73.6685ZM63.8509 63.3437H63.7744L64.2251 58.2408L122.412 63.3437H63.8509ZM63.3407 127.172L58.238 126.73L63.3407 68.5571V127.112C63.3476 127.137 63.3592 127.16 63.3747 127.18L63.3407 127.172ZM127.081 127.631H127.149L126.698 132.734L68.5369 127.631H127.081ZM127.591 63.803L132.694 64.2452L127.591 122.418V63.8795C127.591 63.8795 127.625 63.8285 127.625 63.8115L127.591 63.803ZM64.2761 57.7135H64.1911L65.1691 52.1769L128.246 63.3182L64.2761 57.7135ZM57.6938 126.679C57.6857 126.706 57.6857 126.736 57.6938 126.764L52.1574 125.786L63.2556 62.978L57.6938 126.679ZM126.656 133.261H126.732L125.754 138.789L62.9495 127.733L126.656 133.261ZM133.238 64.2962C133.242 64.2595 133.242 64.2224 133.238 64.1857L138.758 65.1637L127.702 127.971L133.238 64.2962ZM65.3137 51.6582C65.2659 51.6497 65.2169 51.6497 65.1691 51.6582L66.7594 45.7473C66.7594 45.7473 66.7594 45.7473 66.8105 45.7473L134.565 63.8965L65.3137 51.6582ZM125.695 139.334H125.839L124.258 145.236C124.248 145.243 124.236 145.247 124.224 145.247C124.211 145.247 124.2 145.243 124.19 145.236L56.4351 127.087L125.695 139.334ZM139.302 65.2998C139.306 65.2517 139.306 65.2033 139.302 65.1552L145.255 66.7371C145.255 66.7371 145.255 66.7796 145.255 66.7966L127.098 134.554L139.302 65.2998ZM66.921 45.1945C66.8589 45.1861 66.796 45.1861 66.7339 45.1945L69.0216 38.918C69.0303 38.903 69.0426 38.8904 69.0575 38.8815C69.0724 38.8725 69.0893 38.8676 69.1066 38.867L141.266 65.1297L66.921 45.1945ZM145.774 66.9412C145.786 66.8824 145.786 66.8215 145.774 66.7626L152.05 69.0419C152.06 69.0447 152.07 69.0497 152.078 69.0565C152.087 69.0634 152.093 69.0719 152.098 69.0815C152.103 69.0911 152.106 69.1017 152.106 69.1124C152.107 69.1232 152.105 69.1339 152.101 69.144L125.839 141.307L145.774 66.9412ZM152.62 69.3311C152.633 69.2579 152.633 69.1831 152.62 69.1099L159.228 72.1972C159.253 72.21 159.274 72.2317 159.284 72.2583C159.295 72.2849 159.296 72.3145 159.287 72.3418L123.781 148.476L152.62 69.3311ZM159.814 72.5714C159.846 72.4866 159.866 72.3979 159.874 72.3077L166.771 76.2879C166.8 76.3085 166.821 76.3386 166.831 76.373C166.839 76.3903 166.843 76.4091 166.843 76.4283C166.843 76.4474 166.839 76.4663 166.831 76.4836L120.907 156.029L159.814 72.5714ZM167.29 76.7557C167.344 76.6564 167.373 76.5455 167.375 76.4325L174.502 81.4333C174.521 81.4456 174.538 81.4617 174.551 81.4807C174.564 81.4997 174.573 81.5212 174.578 81.5439C174.596 81.5875 174.596 81.6364 174.578 81.68L116.995 163.913L167.29 76.7557ZM174.995 81.9946C175.068 81.8833 175.109 81.7538 175.114 81.6204L182.402 87.7354C182.442 87.7765 182.464 87.8314 182.464 87.8885C182.464 87.9455 182.442 88.0004 182.402 88.0415L111.918 172.052L174.995 81.9946ZM95.2831 0.612549C95.3076 0.587863 95.3368 0.568274 95.3689 0.554904C95.401 0.541534 95.4354 0.534659 95.4702 0.534659C95.505 0.534659 95.5395 0.541534 95.5716 0.554904C95.6037 0.568274 95.6328 0.587863 95.6573 0.612549L180.318 85.2775L88.3946 8.12227C88.2756 8.02121 88.1255 7.96416 87.9694 7.96068L95.2831 0.612549ZM0.544273 95.5002C0.543091 95.4654 0.5493 95.4307 0.562492 95.3985C0.575685 95.3662 0.595559 95.3371 0.62081 95.3131L85.282 10.6482L8.1302 102.602C8.02891 102.721 7.96921 102.87 7.9601 103.027L0.62081 95.6788C0.595772 95.6565 0.57595 95.6289 0.562726 95.598C0.549502 95.5671 0.5432 95.5338 0.544273 95.5002ZM95.6828 190.379C95.6583 190.404 95.6292 190.424 95.5971 190.437C95.565 190.45 95.5305 190.457 95.4957 190.457C95.461 190.457 95.4265 190.45 95.3944 190.437C95.3623 190.424 95.3332 190.404 95.3086 190.379L10.656 105.714L102.597 182.87C102.719 182.967 102.867 183.027 103.022 183.04L95.6828 190.379ZM190.379 95.6788L105.718 180.344L182.87 88.3987C182.963 88.2719 183.019 88.1217 183.031 87.965L190.379 95.3131C190.426 95.3642 190.454 95.4307 190.456 95.5002C190.454 95.5673 190.427 95.6312 190.379 95.6788Z" fill="url(#paint0_linear)"/>
<defs>
<linearGradient id="paint0_linear" x1="-1.61644e-05" y1="95.5002" x2="191" y2="95.5002" gradientUnits="userSpaceOnUse">
<stop stop-color="#3DDEED"/>
<stop offset="1" stop-color="#CB00DD"/>
</linearGradient>
</defs>
</svg>
