<svg width="163" height="163" viewBox="0 0 163 163" fill="none" xmlns="http://www.w3.org/2000/svg">
<g clip-path="url(#clip0)">
<path d="M42.5101 162.991L87.6805 147.06L133.102 155.61L133.284 155.61L133.665 153.522L134.783 153.678L134.965 153.678L135.303 151.469L138.196 151.816L138.387 151.816L138.621 149.711L139.747 149.789L139.929 149.789L140.111 147.562L143.212 147.709L143.299 145.587L144.607 145.587L144.607 143.352L147.709 143.282L147.639 141.16L148.765 141.091L148.947 141.091L148.817 138.856L151.91 138.578L151.702 136.464L152.811 136.317L152.993 136.317L152.707 134.099L155.592 133.64L155.774 133.64L155.41 131.544L156.519 131.318L156.692 131.318L156.259 129.127L159.274 128.425L158.772 126.354L160.028 126.008L159.439 123.851L162.22 122.984L162.402 122.924L161.752 120.897L162.982 120.463L147.761 77.3201L147.761 77.2421L156.251 31.3266L156.251 31.1447L154.041 30.7289L154.509 27.688L152.387 27.3849L152.508 26.2759L152.508 26.094L150.264 25.8341L150.507 22.9579L150.507 22.776L148.367 22.6114L148.419 21.3119L146.166 21.2079L146.166 18.1411L144.027 18.1411L144.027 17.0322L144.027 16.8416L141.774 16.8936L141.592 13.8268L139.452 13.9654L139.34 12.8565L139.34 12.6745L137.096 12.8738L136.706 9.83299L134.575 10.1102L134.384 9.00997L134.384 8.83669L132.149 9.19192L131.552 6.17705L129.446 6.61022L129.134 5.34541L126.943 5.85652L126.076 2.89368L124.014 3.46544L123.668 2.40854L123.616 2.23526L121.459 2.89368L120.549 0.182064L120.488 0.00878721L75.3353 15.9319L29.9223 7.38993L29.7317 7.38993L29.3505 9.47776L28.233 9.31316L28.051 9.31316L27.7132 11.5223L24.8196 11.1845L24.629 11.1845L24.3951 13.2983L23.2775 13.2116L23.087 13.2116L22.905 15.4381L19.8036 15.2909L19.7169 17.4134L18.3741 17.4134L18.3741 19.6399L15.2726 19.7091L15.3333 21.8316L14.2071 21.901L14.0251 21.901L14.1551 24.1274L11.0623 24.4133L11.2789 26.5271L10.1613 26.6744L9.97938 26.6744L10.2653 28.8923L7.38905 29.3514L7.19844 29.3514L7.56233 31.4479L6.46208 31.6731L6.28013 31.6731L6.72197 33.8737L3.69848 34.5754L4.20964 36.6372L2.94478 36.9837L3.54256 39.1409L0.752943 40.0072L0.57971 40.0679L1.22946 42.0864L-0.00938601 42.5283L15.212 85.6628L15.212 85.7408L6.73063 131.656L6.73063 131.838L8.94843 132.254L8.47196 135.286L10.5945 135.598L10.4732 136.698L10.4732 136.889L12.7083 137.149L12.4744 140.025L12.4744 140.207L14.6142 140.372L14.5536 141.662L16.8147 141.775L16.8147 144.842L18.9632 144.842L18.9632 145.951L18.9632 146.133L21.2243 146.089L21.3976 149.148L23.5375 149.018L23.6501 150.126L23.6501 150.308L25.8939 150.1L26.2924 153.15L28.4149 152.864L28.6055 153.964L28.6055 154.146L30.8319 153.791L31.4384 156.797L33.5349 156.373L33.8468 157.629L36.0473 157.118L36.8616 160.081L38.9321 159.509L39.322 160.748L41.4791 160.081L42.4408 162.81L42.5101 162.991ZM41.3145 158.478L40.4482 156.095L78.7487 147.181L83.3489 146.245L84.5531 146.471L83.2969 146.86L41.3145 158.478ZM70.6831 150.733L41.7217 159.63L41.4358 158.824L70.6831 150.733ZM121.684 4.51371L122.55 6.88745L84.2152 15.776L79.641 16.703L78.4281 16.4777L79.6843 16.0965L121.684 4.51371ZM92.3241 12.25L121.277 3.35281L121.563 4.15854L92.3241 12.25ZM39.9804 154.692L39.1921 152.448L74.1485 146.826L81.1744 145.89L82.0407 146.029L78.6534 146.817L39.9804 154.692ZM65.8317 149.815L40.3529 155.749L40.1017 155.047L65.8317 149.815ZM123.01 8.29957L123.807 10.5347L88.8414 16.1659L81.8155 17.0928L80.9491 16.9629L84.3452 16.1745L123.01 8.29957ZM97.2102 13.177L122.689 7.24268L122.932 7.9444L97.2102 13.177ZM38.7589 151.131L38.0051 149.018L69.6002 146.15L78.9479 145.561L79.3291 145.622L74.1311 146.488L38.7589 151.131ZM61.0929 148.532L39.0967 152.067L38.8801 151.469L61.0929 148.532ZM124.335 11.8255L125.089 13.9481L93.4936 16.8156L84.1459 17.396L83.7647 17.3441L88.9627 16.4777L124.335 11.8255ZM102.001 14.4245L123.997 10.8812L124.214 11.4877L102.001 14.4245ZM37.598 147.77L36.8876 145.752L65.0953 145.145L75.6472 145.223L69.5829 145.769L37.598 147.77ZM56.4407 146.964L37.9098 148.645L37.728 148.134L56.4407 146.964ZM18.8419 97.9647L18.7553 96.4573L18.8073 96.6219L19.7862 102.314L23.9446 134.671L22.4718 134.394L18.8419 97.9647ZM22.0906 134.351L20.9211 134.125L19.3531 106.845L22.0906 134.351ZM125.461 15.2129L126.172 17.2314L97.9639 17.8292L87.412 17.7599L93.4763 17.2141L125.461 15.2129ZM106.627 16.0186L125.149 14.3379L125.331 14.849L106.627 16.0186ZM144.217 65.0182L144.304 66.517L144.252 66.3524L143.273 60.6606L139.115 28.3118L140.587 28.589L144.217 65.0182ZM140.969 28.6324L142.138 28.849L143.706 56.1383L140.969 28.6324ZM36.4198 144.591L35.7354 142.667L60.5904 143.854L71.1076 144.66L65.0433 144.79L36.4198 144.591ZM51.8231 145.067L36.697 145.388L36.5497 144.963L51.8231 145.067ZM20.1068 102.27L19.8902 100.538L21.3543 106.524L27.1154 135.33L25.7033 135.07L20.1068 102.27ZM25.3048 134.948L24.2565 134.749L21.2243 111.072L25.3048 134.948ZM126.587 18.375L127.263 20.2982L102.408 19.1287L91.8909 18.375L97.9552 18.245L126.587 18.375ZM111.184 17.8985L126.302 17.578L126.457 18.0025L111.184 17.8985ZM142.909 60.7039L143.126 62.4365L141.662 56.4415L135.883 27.6967L137.295 27.9653L142.909 60.7039ZM137.711 28.0259L138.759 28.2165L141.8 51.902L137.711 28.0259ZM35.3715 141.515L34.7218 139.67L56.25 142.26L66.646 143.785L60.5817 143.499L35.3715 141.515ZM47.4395 142.806L35.6054 142.26L35.4841 141.914L47.4395 142.806ZM21.7268 106.42L21.3889 104.687L23.2689 110.561L30.1995 135.789L28.8394 135.537L21.7268 106.42ZM28.4669 135.494L27.5399 135.321L23.4768 115.127L28.4669 135.494ZM127.653 21.4245L128.303 23.2611L106.74 20.7314L96.3438 19.2413L102.408 19.5272L127.653 21.4245ZM115.594 20.1077L127.402 20.6708L127.514 21.0086L115.594 20.1077ZM141.298 56.4935L141.644 58.2262L139.756 52.3438L132.825 27.1249L134.176 27.3762L141.298 56.4935ZM134.558 27.4195L135.493 27.5928L139.548 47.8302L134.558 27.4195ZM34.3319 138.682L33.6995 136.95L66.62 143.135L56.3367 141.931L34.3319 138.682ZM43.1771 140.346L34.5138 139.332L34.4272 139.072L43.1771 140.346ZM23.5721 110.535L22.1426 105.337L33.1017 136.421L31.8022 136.179L23.5721 110.535ZM31.3691 136.101L30.546 135.945L25.9112 119.095L31.3691 136.101ZM128.623 24.344L129.247 26.0767L96.3265 19.8824L106.61 21.0953L128.623 24.344ZM119.769 22.6806L128.389 23.6856L128.485 23.9455L119.769 22.6806ZM139.348 52.4911L140.778 57.6891L129.81 26.6051L131.118 26.8477L139.348 52.4911ZM131.552 26.9257L132.366 27.0816L137.061 43.8884L131.552 26.9257ZM18.0623 72.3647L18.0623 72.1394L17.9583 73.3176L17.9583 72.8065L18.0623 72.3647ZM18.7813 68.4489L19.0065 67.2187L18.738 68.9513L18.7813 68.4489ZM19.5523 96.0415L18.686 91.7099L18.1315 87.3782L17.8803 82.9859L17.9323 78.5936L18.3741 74.1667L21.4323 54.4403L25.2095 34.0122L50.1684 25.2103L64.6968 20.7487L69.0284 19.7351L73.4121 19.0334L77.8304 18.6349L82.266 18.5396L86.7016 18.7475L91.1112 19.2673L129.472 26.4838L142.259 62.7398L143.429 66.9848L144.295 71.3164L144.858 75.6481L145.11 80.0404L145.049 84.4327L144.685 88.7643L141.618 108.499L137.841 128.919L112.882 137.729L98.3277 142.26L93.9961 143.265L89.6644 143.976L85.2461 144.374L80.8019 144.469L76.3663 144.253L71.9566 143.742L33.5955 136.516L20.7652 100.243L19.5523 96.0415ZM63.6485 20.6274L62.8515 20.818L63.3453 20.6794L63.6485 20.6274ZM59.4035 21.9962L58.6065 22.2388L59.1003 22.0656L59.4035 21.9962ZM144.858 90.6616L144.858 90.8868L144.954 89.7086L144.954 90.2111L144.858 90.6616ZM144.131 94.5774L143.905 95.8076L144.174 94.0749L144.131 94.5774ZM99.2634 142.399L100.06 142.208L99.5665 142.347L99.2634 142.399ZM103.517 141.021L104.305 140.779L103.812 140.952L103.517 141.021ZM107.095 140.155L112.925 138.102L137.477 130.556L137.226 131.89L108.767 139.765L107.095 140.155ZM121.467 135.13L137.72 129.395L137.573 130.184L121.467 135.13ZM138.144 129.265L138.387 129.179L138.266 129.993L137.997 130.071L138.144 129.265ZM138.222 128.849L139.6 121.382L138.456 128.763L138.222 128.849ZM141.956 108.629L143.862 98.3286L143.36 104.393L140.691 128.009L138.855 128.659L141.956 108.629ZM142.363 61.8474L142.112 60.9811L142.294 61.5442L142.363 61.8474ZM129.724 26.172L129.091 24.3787L130.451 24.5779L131.04 26.4232L129.724 26.172ZM92.0122 19.0074L92.4714 19.0074L93.5889 19.172L92.0122 19.0074ZM55.8342 22.8019L50.0038 24.8551L25.4607 32.4009L25.7033 31.0581L54.1535 23.1918L55.8342 22.8019ZM41.5138 27.9046L25.2615 33.6397L25.4087 32.8514L41.5138 27.9046ZM24.8542 33.7784L24.6117 33.865L24.7416 33.0593L25.0102 32.9726L24.8542 33.7784ZM24.7763 34.2029L23.3988 41.6706L24.5511 34.2808L24.7763 34.2029ZM21.0424 54.423L19.1365 64.7236L19.6476 58.6593L22.3072 35.0432L24.1525 34.3934L21.0424 54.423ZM20.6352 101.205L20.8865 102.071L20.7045 101.517L20.6352 101.205ZM33.2837 136.854L33.9161 138.648L32.5559 138.448L31.9582 136.603L33.2837 136.854ZM70.969 144.01L70.5012 144.01L69.3836 143.846L70.969 144.01ZM102.937 141.836L108.906 140.19L136.957 133.597L136.698 134.983L104.643 141.515L102.937 141.836ZM117.612 137.773L137.2 132.358L137.027 133.224L117.612 137.773ZM137.59 132.245L137.928 132.159L137.78 133.077L137.425 133.164L137.59 132.245ZM137.668 131.838L137.919 130.495L138.196 130.409L137.988 131.752L137.668 131.838ZM138.595 130.288L140.501 129.698L140.345 131.102L138.387 131.648L138.595 130.288ZM138.655 129.88L138.785 129.014L140.648 128.356L140.544 129.222L138.655 129.88ZM141.038 128.26L141.367 128.139L141.289 129.075L140.934 129.179L141.038 128.26ZM141.038 127.844L142.259 117.258L141.393 127.706L141.038 127.844ZM143.68 104.402L144.858 94.0056L144.78 100.07L143.654 126.926L141.74 127.602L143.68 104.402ZM132.73 26.7264L132.201 24.8205L133.622 25.0284L134.099 26.9776L132.73 26.7264ZM132.323 26.6484L131.456 26.4925L130.858 24.6299L131.725 24.7598L132.323 26.6484ZM130.763 24.2314L130.659 23.9109L131.603 24.0235L131.699 24.37L130.763 24.2314ZM130.356 24.1794L128.978 23.9715L128.883 23.7029L130.252 23.8676L130.356 24.1794ZM128.753 23.3131L128.095 21.4505L129.516 21.5631L130.131 23.4777L128.753 23.3131ZM60.0966 21.1819L54.1276 22.8279L26.0758 29.36L26.3357 27.9739L58.3899 21.4505L60.0966 21.1819ZM45.4209 25.2363L25.8419 30.6595L26.0065 29.7932L45.4209 25.2363ZM25.4433 30.7635L25.1055 30.8588L25.2528 29.9319L25.608 29.8539L25.4433 30.7635ZM25.3654 31.1707L25.1142 32.5222L24.837 32.6088L25.0449 31.2573L25.3654 31.1707ZM24.4384 32.7301L22.5325 33.3105L22.6971 31.9071L24.655 31.3699L24.4384 32.7301ZM24.3778 33.1372L24.2479 34.0036L22.3852 34.662L22.4892 33.7957L24.3778 33.1372ZM21.9954 34.7573L21.6748 34.8699L21.7528 33.9429L22.108 33.8303L21.9954 34.7573ZM21.9954 35.1645L20.8085 45.7337L21.6748 35.2771L21.9954 35.1645ZM19.2404 58.616L18.0709 69.012L18.1489 62.9477L19.2665 36.0915L21.1897 35.4157L19.2404 58.616ZM30.2688 136.265L30.7973 138.171L29.3852 137.963L28.9 136.005L30.2688 136.265ZM30.676 136.343L31.5423 136.499L32.1401 138.362L31.2218 138.223L30.676 136.343ZM32.2354 138.795L32.3393 139.124L31.4037 139.011L31.2997 138.656L32.2354 138.795ZM32.6425 138.856L34.02 139.055L34.1153 139.332L32.7466 139.167L32.6425 138.856ZM34.254 139.722L34.9124 141.576L33.4829 141.472L32.8678 139.557L34.254 139.722ZM88.2956 145.353L87.5679 145.578L87.0134 145.578L87.8798 145.396L88.2956 145.353ZM94.4206 144.201L94.5765 144.157L95.0443 144.097L94.7671 144.192L94.4206 144.201ZM98.8042 143.161L98.9602 143.109L104.669 141.948L136.368 136.802L136.1 138.249L100.346 142.979L98.8042 143.161ZM113.532 140.146L136.602 135.451L136.412 136.456L113.532 140.146ZM137.018 135.33L137.443 135.243L137.287 136.283L136.827 136.352L137.018 135.33ZM137.096 134.931L137.347 133.536L137.72 133.45L137.503 134.853L137.096 134.931ZM138.11 133.354L140.137 132.887L139.972 134.351L137.893 134.766L138.11 133.354ZM138.17 132.964L138.318 132.02L140.293 131.474L140.18 132.497L138.17 132.964ZM140.683 131.37L141.098 131.249L141.012 132.297L140.561 132.401L140.683 131.37ZM140.726 130.972L140.891 129.56L141.254 129.447L141.133 130.859L140.726 130.972ZM141.592 129.326L143.576 128.719L143.516 130.184L141.471 130.755L141.592 129.326ZM141.592 128.927L141.67 127.983L143.602 127.299L143.602 128.321L141.592 128.927ZM143.983 127.195L144.391 127.056L144.391 128.104L143.949 128.243L143.983 127.195ZM143.983 126.796L144.564 113.004L144.382 126.658L143.983 126.796ZM145.101 100.061L145.543 89.5873L145.889 95.6516L146.756 125.843L144.754 126.545L145.101 100.061ZM146.21 78.3077L146.054 77.4414L146.054 77.0515L146.253 77.7879L146.21 78.3077ZM135.719 27.3415L135.311 25.323L136.784 25.5396L137.139 27.6101L135.719 27.3415ZM135.32 27.2722L134.462 27.0383L133.977 25.0717L135.008 25.219L135.32 27.2722ZM133.795 24.7339L133.7 24.318L134.757 24.4393L134.844 24.8811L133.795 24.7339ZM133.405 24.6732L131.976 24.4653L131.881 24.1014L133.301 24.266L133.405 24.6732ZM131.768 23.7202L131.222 21.7364L132.712 21.849L133.206 23.8848L131.768 23.7202ZM131.37 23.6683L130.417 23.5556L129.793 21.6237L130.832 21.7017L131.37 23.6683ZM129.637 21.2425L129.507 20.8354L130.573 20.8874L130.694 21.3205L129.637 21.2425ZM129.238 21.2425L127.8 21.1299L127.679 20.7747L129.108 20.844L129.238 21.2425ZM127.506 20.3762L126.821 18.427L128.311 18.427L128.953 20.4282L127.506 20.3762ZM75.9591 17.5087L75.0494 17.6906L74.6856 17.6906L75.4133 17.4654L75.9591 17.5087ZM68.5433 18.8515L68.3873 18.8948L67.9282 18.9554L68.1968 18.8515L68.5433 18.8515ZM64.1596 19.8911L64.0037 19.943L58.2946 21.104L26.6303 26.172L26.8988 24.7339L62.6522 19.995L64.1596 19.8911ZM49.432 22.9059L26.3617 27.6014L26.5523 26.5878L49.432 22.9059ZM25.9718 27.6794L25.5474 27.766L25.7119 26.7264L26.1624 26.6484L25.9718 27.6794ZM25.9025 28.0692L25.6426 29.4727L25.2701 29.5593L25.4867 28.1558L25.9025 28.0692ZM24.8803 29.646L22.853 30.1224L23.0176 28.6583L25.0968 28.2338L24.8803 29.646ZM24.8196 30.0444L24.6724 30.9801L22.6971 31.5345L22.8097 30.5123L24.8196 30.0444ZM22.3072 31.6385L21.8914 31.7511L21.978 30.7029L22.4285 30.5989L22.3072 31.6385ZM22.3072 32.037L22.1513 33.4492L21.7875 33.5618L21.9001 32.1497L22.3072 32.037ZM21.4409 33.683L19.457 34.2895L19.5177 32.8167L21.5622 32.2536L21.4409 33.683ZM21.4409 34.0816L21.3543 35.0258L19.4224 35.7103L19.4224 34.6793L21.4409 34.0816ZM19.0499 35.8142L18.6427 35.9615L18.6427 34.9046L19.0845 34.7746L19.0499 35.8142ZM19.0499 36.2128L18.4694 50.0047L18.6514 36.3513L19.0499 36.2128ZM17.9323 62.9564L17.4904 73.4216L17.1439 67.3573L16.2776 37.1657L18.2788 36.464L17.9323 62.9564ZM16.832 84.7012L16.988 85.6195L16.988 86.0007L16.78 85.2644L16.832 84.7012ZM27.3146 135.667L27.7218 137.686L26.2491 137.469L25.8939 135.408L27.3146 135.667ZM27.7132 135.745L28.6574 135.927L29.1426 137.894L28.1117 137.747L27.7132 135.745ZM29.2379 138.284L29.3418 138.7L28.2763 138.57L28.1896 138.128L29.2379 138.284ZM29.6364 138.344L31.0572 138.552L31.1612 138.907L29.6364 138.795L29.6364 138.344ZM31.2651 139.297L31.8109 141.281L30.3295 141.169L29.827 139.133L31.2651 139.297ZM31.6636 139.297L32.6166 139.41L33.1017 141.394L32.0621 141.316L31.6636 139.297ZM33.3963 141.732L33.5262 142.13L32.4607 142.078L32.348 141.645L33.3963 141.732ZM33.7948 141.732L35.2329 141.844L35.3628 142.191L33.9248 142.13L33.7948 141.732ZM35.5274 142.598L36.2119 144.539L34.7218 144.539L34.0807 142.537L35.5274 142.598ZM91.7349 144.911L92.6013 144.669L93.5283 144.608L92.6619 144.92L91.7349 144.911ZM97.0542 143.768L100.58 143.3L135.944 140.086L135.667 141.602L96.1792 144.071L97.0542 143.768ZM109.339 142.165L136.013 138.63L135.805 139.765L109.339 142.165ZM136.403 138.578L136.923 138.518L136.741 139.679L136.186 139.731L136.403 138.578ZM136.472 138.197L136.741 136.742L137.209 136.664L136.975 138.128L136.472 138.197ZM137.59 136.603L139.738 136.257L139.565 137.79L137.365 138.084L137.59 136.603ZM137.65 136.222L137.815 135.165L139.912 134.732L139.782 135.875L137.65 136.222ZM140.249 134.654L140.761 134.55L140.665 135.728L140.12 135.815L140.249 134.654ZM140.249 134.273L140.414 132.8L140.873 132.687L140.752 134.169L140.249 134.273ZM141.393 132.601L143.516 132.107L143.446 133.649L141.272 134.091L141.393 132.601ZM141.393 132.211L141.48 131.145L143.541 130.573L143.498 131.726L141.393 132.211ZM143.923 130.478L144.425 130.339L144.425 131.518L143.888 131.648L143.923 130.478ZM143.923 130.088L143.992 128.607L144.434 128.468L144.434 129.958L143.923 130.088ZM144.789 128.356L146.868 127.715L146.868 129.257L144.72 129.854L144.789 128.356ZM144.789 127.966L144.789 126.9L146.799 126.19L146.799 127.333L144.789 127.966ZM147.189 126.06L147.683 125.878L147.752 127.056L147.223 127.221L147.189 126.06ZM147.189 125.67L146.695 108.543L147.665 125.497L147.189 125.67ZM146.322 95.5823L146.054 86.3213L146.123 85.9314L146.79 91.1294L150.126 124.639L148.029 125.375L146.322 95.5823ZM146.236 81.8423L146.288 81.4612L146.435 82.2149L146.331 82.7693L146.236 81.8423ZM145.889 73.8201L145.664 72.9538L145.664 72.5639L145.924 73.283L145.889 73.8201ZM139.037 27.9046L138.759 25.7734L140.31 25.9987L140.527 28.1819L139.037 27.9046ZM138.655 27.8353L137.59 27.6274L137.235 25.5482L138.378 25.7128L138.655 27.8353ZM137.165 25.1584L137.079 24.6559L138.266 24.7945L138.335 25.3317L137.165 25.1584ZM136.784 25.1064L135.294 24.8898L135.207 24.4306L136.698 24.6126L136.784 25.1064ZM135.129 24.0494L134.705 21.9443L136.256 22.0569L136.628 24.2314L135.129 24.0494ZM134.74 24.0061L133.665 23.8762L133.163 21.823L134.315 21.9096L134.74 24.0061ZM133.068 21.4072L132.946 20.9133L134.133 20.9653L134.246 21.5024L133.068 21.4072ZM132.678 21.4072L131.179 21.2945L131.058 20.844L132.556 20.922L132.678 21.4072ZM130.945 20.4715L130.373 18.3923L131.933 18.3923L132.461 20.5321L130.945 20.4715ZM130.555 20.4715L129.472 20.4195L128.823 18.401L129.983 18.401L130.555 20.4715ZM128.71 18.0284L128.545 17.5347L129.741 17.5347L129.888 18.0545L128.71 18.0284ZM128.311 18.0284L126.813 18.0284L126.657 17.5867L128.164 17.5867L128.311 18.0284ZM126.527 17.2141L125.816 15.1782L127.367 15.083L128.043 17.1795L126.527 17.2141ZM80.4467 17.2661L79.5284 17.3874L79.1472 17.3874L79.8922 17.2141L80.4467 17.2661ZM71.4282 18.0112L70.5618 18.2624L69.6349 18.323L70.5012 18.0112L71.4282 18.0112ZM66.1089 19.1633L62.5743 19.6312L27.2107 22.8366L27.4966 21.3205L66.9752 18.8515L66.1089 19.1633ZM53.6164 20.818L26.9335 24.344L27.1414 23.2178L53.6164 20.818ZM26.5869 24.4393L26.0671 24.5086L26.2491 23.3477L26.7948 23.2957L26.5869 24.4393ZM26.509 24.8205L26.2404 26.2846L25.7812 26.3539L26.0065 24.8898L26.509 24.8205ZM25.3914 26.4232L23.2429 26.7611L23.4162 25.2363L25.6253 24.9418L25.3914 26.4232ZM25.3308 26.8044L25.1662 27.8613L23.0696 28.2858L23.1996 27.1509L25.3308 26.8044ZM22.7318 28.3638L22.2206 28.4678L22.3159 27.2982L22.8617 27.2116L22.7318 28.3638ZM22.6884 28.7536L22.5238 30.2264L22.0647 30.3303L22.186 28.8576L22.6884 28.7536ZM21.6835 30.4256L19.561 30.9194L19.6303 29.3774L21.8134 28.9356L21.6835 30.4256ZM21.6835 30.8068L21.5968 31.8724L19.535 32.4442L19.587 31.3006L21.6835 30.8068ZM19.1625 32.5395L18.66 32.6781L18.66 31.4999L19.1971 31.3786L19.1625 32.5395ZM19.1625 32.9293L19.1019 34.4108L18.6514 34.5494L18.6514 33.068L19.1625 32.9293ZM18.2961 34.662L16.217 35.3031L16.217 33.761L18.3568 33.1719L18.2961 34.662ZM18.2961 35.0518L18.2961 36.1261L16.2776 36.8365L16.2776 35.6929L18.2961 35.0518ZM15.8964 36.9665L15.4026 37.1397L15.342 35.9615L15.8617 35.8055L15.8964 36.9665ZM15.8964 37.3563L16.3816 54.475L15.4113 37.5295L15.8964 37.3563ZM16.7628 67.4266L17.0226 76.705L16.9533 77.0862L16.2863 71.8882L12.9509 38.3872L15.0474 37.6422L16.7628 67.4266ZM16.8407 81.1752L16.7974 81.5651L16.6415 80.8114L16.7454 80.2569L16.8407 81.1752ZM17.1873 89.2061L17.4125 90.0725L17.4125 90.4623L17.1612 89.7346L17.1873 89.2061ZM24.0399 135.122L24.3171 137.253L22.7058 136.976L22.4892 134.784L24.0399 135.122ZM24.4211 135.191L25.4867 135.39L25.8505 137.478L24.6983 137.305L24.4211 135.191ZM25.9112 137.859L25.9978 138.37L24.8109 138.232L24.7503 137.695L25.9112 137.859ZM26.301 137.92L27.7824 138.136L27.8777 138.587L26.379 138.414L26.301 137.92ZM27.9557 138.968L28.3802 141.082L26.8208 140.961L26.4483 138.795L27.9557 138.968ZM28.3369 139.02L29.4198 139.141L29.9223 141.195L28.7614 141.108L28.3369 139.02ZM30.0089 141.576L30.1389 142.078L28.9434 142.018L28.8394 141.489L30.0089 141.576ZM30.3988 141.576L31.8975 141.688L32.0188 142.13L30.5201 142.061L30.3988 141.576ZM32.1314 142.511L32.7032 144.582L31.1438 144.582L30.624 142.442L32.1314 142.511ZM32.5213 142.511L33.6042 142.563L34.254 144.582L33.0931 144.582L32.5213 142.511ZM34.3752 144.954L34.5312 145.44L33.3357 145.44L33.197 144.92L34.3752 144.954ZM34.7651 144.954L36.2639 144.954L36.4198 145.388L34.921 145.388L34.7651 144.954ZM36.5497 145.769L37.2688 147.805L35.7094 147.9L35.0336 145.804L36.5497 145.769ZM82.4825 145.726L83.3922 145.604L83.7734 145.604L83.0283 145.777L82.4825 145.726ZM89.0233 145.656L90.1929 145.336L91.3971 145.336L90.2795 145.726L89.0233 145.656ZM94.6631 144.582L95.9367 144.504L135.06 143.638L134.766 145.232L93.5283 144.954L94.6631 144.582ZM104.972 143.941L135.363 142.044L135.129 143.3L104.972 143.941ZM135.745 142.018L136.36 142.018L136.152 143.308L135.511 143.308L135.745 142.018ZM135.814 141.645L136.091 140.112L136.654 140.06L136.412 141.602L135.814 141.645ZM137.061 140.016L139.34 139.817L139.158 141.428L136.819 141.567L137.061 140.016ZM137.122 139.644L137.304 138.466L139.522 138.171L139.383 139.436L137.122 139.644ZM139.903 138.119L140.518 138.041L140.405 139.341L139.756 139.401L139.903 138.119ZM139.946 137.738L140.12 136.196L140.674 136.109L140.544 137.66L139.946 137.738ZM141.055 136.049L143.316 135.685L143.247 137.305L140.925 137.608L141.055 136.049ZM141.055 135.667L141.15 134.472L143.351 134.03L143.29 135.304L141.055 135.667ZM143.723 133.935L144.321 133.813L144.321 135.122L143.689 135.226L143.723 133.935ZM143.723 133.554L143.784 132.003L144.33 131.873L144.33 133.432L143.723 133.554ZM144.702 131.821L146.929 131.301L146.981 132.921L144.685 133.389L144.702 131.821ZM144.702 131.44L144.702 130.244L146.86 129.646L146.86 130.929L144.702 131.44ZM147.241 129.551L147.838 129.387L147.916 130.695L147.284 130.842L147.241 129.551ZM147.241 129.161L147.197 127.611L147.735 127.446L147.821 129.005L147.241 129.161ZM148.107 127.333L150.299 126.666L150.455 128.278L148.202 128.901L148.107 127.333ZM148.107 126.952L148.038 125.765L150.152 125.02L150.273 126.285L148.107 126.952ZM150.507 124.89L151.087 124.682L151.261 125.99L150.637 126.172L150.507 124.89ZM150.507 124.509L148.462 103.986L151.061 124.31L150.507 124.509ZM147.18 91.0861L146.478 84.1035L146.652 83.1938L147.327 86.5985L153.643 123.4L151.434 124.18L147.18 91.0861ZM146.513 79.6072L146.617 78.7409L146.912 79.7978L146.712 80.846L146.513 79.6072ZM146.513 76.2978L146.218 75.1196L146.218 74.2013L146.582 75.2409L146.513 76.2978ZM145.213 69.3672L144.928 68.5008L144.581 64.9922L142.511 28.9615L144.053 29.2474L145.213 69.3672ZM144.434 29.2994L145.733 29.5507L145.326 60.5133L144.434 29.2994ZM142.485 28.5544L142.355 26.3019L143.983 26.5358L144.044 28.849L142.485 28.5544ZM142.112 28.4851L140.925 28.2598L140.7 26.0593L141.982 26.2413L142.112 28.4851ZM140.665 25.6782L140.605 25.0717L141.921 25.2276L141.921 25.8688L140.665 25.6782ZM140.284 25.6262L138.733 25.3922L138.664 24.8465L140.223 25.0284L140.284 25.6262ZM138.621 24.4393L138.335 22.1955L139.972 22.3255L140.197 24.6299L138.621 24.4393ZM138.24 24.4393L137.044 24.3007L136.663 22.1175L137.954 22.2128L138.24 24.4393ZM136.602 21.7364L136.498 21.1386L137.824 21.1992L137.928 21.8403L136.602 21.7364ZM136.221 21.7364L134.653 21.6151L134.54 21.0693L136.117 21.1473L136.221 21.7364ZM134.488 20.6968L134.038 18.479L135.684 18.479L136.074 20.7661L134.488 20.6968ZM134.107 20.6968L132.894 20.6361L132.366 18.4876L133.596 18.4876L134.107 20.6968ZM132.279 18.0978L132.132 17.5087L133.457 17.5087L133.587 18.1411L132.279 18.0978ZM131.898 18.0978L130.321 18.0978L130.131 17.5087L131.707 17.5087L131.898 18.0978ZM130.07 17.2314L129.472 15.0483L131.11 14.9443L131.664 17.1968L130.07 17.2314ZM129.689 17.2314L128.485 17.2314L127.8 15.1176L129.091 15.0396L129.689 17.2314ZM127.688 14.7797L127.497 14.1993L128.823 14.078L128.996 14.7018L127.688 14.7797ZM127.306 14.7797L125.738 14.875L125.548 14.3552L127.125 14.2079L127.306 14.7797ZM125.427 13.9914L124.673 11.8515L126.302 11.6436L127.003 13.8441L125.427 13.9914ZM78.4888 17.0322L77.3019 17.2747L76.3836 17.2055L77.4405 16.8763L78.4888 17.0322ZM73.9492 17.3874L72.7883 17.7166L71.5754 17.7166L72.7277 17.3094L73.9492 17.3874ZM68.3094 18.4616L67.0359 18.5483L27.9124 19.4146L28.2069 17.8205L69.4443 18.0978L68.3094 18.4616ZM58.0087 19.1114L27.6006 20.974L27.8258 19.7178L58.0087 19.1114ZM27.2194 20.974L26.6043 20.974L26.8035 19.6832L27.4532 19.6832L27.2194 20.974ZM27.1501 21.3465L26.8642 22.8712L26.3011 22.9232L26.5436 21.3811L27.1501 21.3465ZM25.9199 22.9579L23.6414 23.1658L23.8233 21.5544L26.1624 21.4071L25.9199 22.9579ZM25.8679 23.339L25.6773 24.5173L23.4595 24.8118L23.5721 23.573L25.8679 23.339ZM23.0783 24.8638L22.4718 24.9418L22.5758 23.6336L23.2256 23.573L23.0783 24.8638ZM23.0783 25.245L22.905 26.7871L22.3506 26.8737L22.4805 25.323L23.0783 25.245ZM21.9694 26.9343L19.7169 27.2982L19.7862 25.6781L22.108 25.3663L21.9694 26.9343ZM21.9694 27.3155L21.8655 28.5024L19.6736 28.9529L19.7256 27.6794L21.9694 27.3155ZM19.2924 29.0482L18.6947 29.1695L18.6947 27.8526L19.3357 27.7487L19.2924 29.0482ZM19.2924 29.4294L19.2231 30.9801L18.6773 31.1014L18.6773 29.5507L19.2924 29.4294ZM18.3048 31.162L16.0783 31.6818L16.0264 30.0618L18.3221 29.594L18.3048 31.162ZM18.3048 31.5519L18.3048 32.7388L16.139 33.3365L16.139 32.063L18.3048 31.5519ZM15.7665 33.4405L15.1687 33.6051L15.0994 32.2969L15.7232 32.1497L15.7665 33.4405ZM15.7665 33.8217L15.8098 35.3724L15.2726 35.537L15.186 33.9863L15.7665 33.8217ZM14.9001 35.6496L12.717 36.3253L12.5524 34.714L14.8135 34.0816L14.9001 35.6496ZM14.9001 36.0308L14.9608 37.2263L12.8556 37.9714L12.7256 36.6979L14.9001 36.0308ZM12.4918 38.1013L11.9113 38.3006L11.7467 37.0011L12.3618 36.8105L12.4918 38.1013ZM12.4918 38.4825L14.5363 58.9972L11.9373 38.6818L12.4918 38.4825ZM15.7751 71.9229L16.4682 78.9055L16.3036 79.7718L15.6192 76.3758L9.30366 39.5654L11.5128 38.7857L15.7751 71.9229ZM16.4422 83.3931L16.3383 84.3114L16.0437 83.2458L16.2343 82.2062L16.4422 83.3931ZM16.4422 86.7111L16.7281 87.8806L16.7281 88.7989L16.3642 87.7594L16.4422 86.7111ZM17.733 93.6418L18.0189 94.5081L18.3654 97.9734L20.4447 134.013L18.8939 133.718L17.733 93.6418ZM18.5214 133.71L17.2132 133.467L17.6204 102.504L18.5214 133.71ZM20.462 134.455L20.5919 136.716L18.9719 136.473L18.9026 134.16L20.462 134.455ZM20.8431 134.524L22.03 134.749L22.2466 136.958L20.9644 136.768L20.8431 134.524ZM22.2813 137.339L22.3419 137.937L21.0251 137.781L21.0251 137.149L22.2813 137.339ZM22.6625 137.391L24.2132 137.617L24.2912 138.171L22.7231 137.981L22.6625 137.391ZM24.3345 138.544L24.629 140.787L22.9917 140.666L22.7577 138.362L24.3345 138.544ZM24.7157 138.587L25.9199 138.734L26.2924 140.917L25.0016 140.822L24.7157 138.587ZM26.353 141.299L26.457 141.888L25.1315 141.827L25.0535 141.195L26.353 141.299ZM26.7342 141.299L28.3023 141.42L28.4149 141.957L26.8382 141.888L26.7342 141.299ZM28.4669 142.338L28.9087 144.556L27.2713 144.556L26.8728 142.278L28.4669 142.338ZM28.8481 142.338L30.0522 142.39L30.5807 144.547L29.2898 144.547L28.8481 142.338ZM30.676 144.937L30.8146 145.526L29.4891 145.526L29.3679 144.902L30.676 144.937ZM31.0572 144.937L32.6253 144.937L32.7725 145.474L31.1958 145.474L31.0572 144.937ZM32.8765 145.855L33.4742 148.039L31.8369 148.134L31.2911 145.89L32.8765 145.855ZM33.2577 145.855L34.4705 145.855L35.1462 147.969L33.8554 148.047L33.2577 145.855ZM35.2589 148.307L35.4495 148.879L34.124 149L33.9594 148.385L35.2589 148.307ZM35.6401 148.307L37.2168 148.212L37.3987 148.732L35.822 148.87L35.6401 148.307ZM37.5287 149.096L38.2824 151.227L36.6537 151.443L35.9433 149.234L37.5287 149.096ZM84.4578 146.046L85.6447 145.812L86.563 145.881L85.506 146.202L84.4578 146.046ZM87.8365 146.046L89.136 146.202L88.0011 146.601L86.5803 146.393L87.8365 146.046ZM92.3673 145.457L134.341 147.467L134.029 149.148L91.1372 145.89L92.3673 145.457ZM100.485 145.457L134.67 145.682L134.41 147.077L100.485 145.457ZM135.043 145.691L135.762 145.691L135.537 147.129L134.783 147.129L135.043 145.691ZM135.112 145.318L135.415 143.716L136.074 143.716L135.822 145.336L135.112 145.318ZM136.446 143.69L138.863 143.638L138.673 145.37L136.195 145.37L136.446 143.69ZM136.507 143.317L136.706 142.009L139.063 141.862L138.907 143.265L136.507 143.317ZM139.444 141.836L140.154 141.792L140.033 143.239L139.279 143.239L139.444 141.836ZM139.444 141.463L139.626 139.843L140.284 139.783L140.145 141.42L139.444 141.463ZM140.665 139.731L143.065 139.514L142.996 141.247L140.527 141.403L140.665 139.731ZM140.665 139.358L140.778 138.033L143.117 137.721L143.056 139.133L140.665 139.358ZM143.489 137.677L144.2 137.582L144.2 139.037L143.446 139.107L143.489 137.677ZM143.489 137.296L143.559 135.667L144.209 135.563L144.209 137.201L143.489 137.296ZM144.581 135.503L146.963 135.113L147.015 136.846L144.555 137.175L144.581 135.503ZM144.581 135.122L144.581 133.796L146.894 133.328L146.938 134.74L144.581 135.122ZM147.457 133.207L148.15 133.068L148.237 134.524L147.492 134.637L147.457 133.207ZM147.457 132.835L147.414 131.197L148.055 131.05L148.15 132.696L147.457 132.835ZM148.376 130.998L150.732 130.452L150.905 132.185L148.471 132.679L148.376 130.998ZM148.376 130.625L148.298 129.3L150.576 128.667L150.715 130.08L148.376 130.625ZM150.975 128.572L151.668 128.382L151.85 129.828L151.122 129.993L150.975 128.572ZM150.975 128.2L150.81 126.571L151.442 126.38L151.65 128.009L150.975 128.2ZM151.841 126.268L154.145 125.557L154.44 127.29L152.049 127.948L151.841 126.268ZM151.789 125.895L151.624 124.578L153.842 123.79L154.085 125.185L151.789 125.895ZM154.197 123.669L154.873 123.426L155.159 124.856L154.44 125.081L154.197 123.669ZM154.137 123.296L150.03 99.3249L154.795 123.062L154.137 123.296ZM147.838 86.5465L147.033 81.877L147.275 80.5948L147.674 82.0589L157.489 122.109L155.15 122.976L147.838 86.5465ZM146.972 77.4674L147.163 76.2545L147.544 77.3287L147.284 78.7235L146.972 77.4674ZM146.175 71.8362L145.803 70.684L145.803 69.4192L146.322 29.6633L147.951 29.9665L146.175 71.8362ZM148.289 30.0358L149.736 30.3131L146.825 65.0182L148.289 30.0358ZM146.288 29.2821L146.288 26.8997L148.02 27.1423L147.916 29.594L146.288 29.2821ZM145.924 29.2128L144.598 28.9615L144.538 26.6311L145.95 26.8391L145.924 29.2128ZM144.52 26.2586L144.52 25.5569L145.985 25.7301L145.985 26.4665L144.52 26.2586ZM143.992 26.172L142.363 25.9294L142.259 25.3056L143.914 25.5049L143.992 26.172ZM142.259 24.9071L142.121 22.5247L143.853 22.6547L143.923 25.0977L142.259 24.9071ZM141.887 24.9071L140.553 24.7512L140.319 22.4294L141.748 22.5334L141.887 24.9071ZM140.284 22.0569L140.215 21.3552L141.688 21.4245L141.688 22.1609L140.284 22.0569ZM139.903 22.0569L138.257 21.9356L138.179 21.2945L139.834 21.3725L139.903 22.0569ZM138.17 20.9133L137.867 18.5483L139.6 18.5483L139.842 20.9913L138.17 20.9133ZM137.798 20.9133L136.455 20.8527L136.056 18.5483L137.495 18.5483L137.798 20.9133ZM135.996 18.1844L135.874 17.4913L137.347 17.4913L137.443 18.2277L135.996 18.1844ZM135.615 18.1844L133.969 18.1844L133.839 17.552L135.502 17.552L135.615 18.1844ZM133.761 17.1708L133.293 14.8231L135.025 14.7191L135.433 17.1362L133.761 17.1708ZM133.388 17.1708L132.045 17.1708L131.491 14.901L132.92 14.8144L133.388 17.1708ZM131.396 14.5718L131.231 13.8874L132.695 13.7574L132.842 14.4852L131.396 14.5718ZM131.023 14.5718L129.368 14.6757L129.195 14.052L130.858 13.8961L131.023 14.5718ZM129.1 13.7055L128.467 11.3924L130.2 11.1671L130.78 13.5495L129.1 13.7055ZM128.727 13.7055L127.384 13.8268L126.674 11.609L128.095 11.4183L128.727 13.7055ZM126.553 11.2451L126.345 10.578L127.792 10.3441L127.991 11.0545L126.553 11.2451ZM126.18 11.2971L124.543 11.5137L124.326 10.8986L125.972 10.6387L126.18 11.2971ZM124.205 10.5434L123.408 8.2909L125.141 7.9444L125.886 10.2834L124.205 10.5434ZM75.1101 17.0842L73.8106 16.9369L74.9455 16.5297L76.3663 16.7376L75.1101 17.0842ZM70.5879 17.6819L28.6055 15.672L28.9173 13.9914L71.8094 17.2488L70.5879 17.6819ZM62.4617 17.6819L28.2763 17.448L28.5362 16.0619L62.4617 17.6819ZM27.9037 17.3614L27.1847 17.3614L27.4099 15.9233L28.1636 15.9233L27.9037 17.3614ZM27.8344 17.7339L27.5399 19.3366L26.8815 19.3366L27.1327 17.7079L27.8344 17.7339ZM26.5003 19.3626L24.0833 19.4059L24.2738 17.6733L26.7515 17.6733L26.5003 19.3626ZM26.4397 19.7265L26.2404 21.0433L23.884 21.1906L24.0399 19.7784L26.4397 19.7265ZM23.5115 21.2166L22.7924 21.2599L22.9223 19.8045L23.6674 19.8045L23.5115 21.2166ZM23.5115 21.5891L23.3295 23.2091L22.6711 23.2698L22.8097 21.6324L23.5115 21.5891ZM22.2986 23.3218L19.8902 23.5383L19.9595 21.8057L22.4372 21.6497L22.2986 23.3218ZM22.2986 23.6943L22.186 25.0197L19.8469 25.323L19.9075 23.9109L22.2986 23.6943ZM19.4744 25.375L18.764 25.4702L18.764 24.0148L19.509 23.9455L19.4744 25.375ZM19.4744 25.7561L19.4137 27.3848L18.7553 27.4888L18.7553 25.8428L19.4744 25.7561ZM18.3828 27.5494L16.0004 27.9306L16.0004 26.198L18.4521 25.8774L18.3828 27.5494ZM18.3828 27.922L18.3828 29.2474L16.0697 29.7239L16.0264 28.3032L18.3828 27.922ZM15.6885 29.7932L14.9868 29.9405L14.9001 28.485L15.6452 28.3638L15.6885 29.7932ZM15.6885 30.1744L15.7318 31.8031L15.0907 31.9504L14.9954 30.313L15.6885 30.1744ZM14.7269 32.037L12.3705 32.5914L12.2059 30.8588L14.6316 30.365L14.7269 32.037ZM14.7269 32.4182L14.8048 33.7437L12.5351 34.3675L12.3964 32.964L14.7269 32.4182ZM12.1279 34.4714L11.4348 34.662L11.2529 33.2152L11.9806 33.042L12.1279 34.4714ZM12.1279 34.8439L12.2925 36.4726L11.6601 36.6632L11.4521 35.0345L12.1279 34.8439ZM11.3049 36.7758L8.99174 37.4862L8.7059 35.7536L11.0883 35.0952L11.3049 36.7758ZM11.3049 37.1484L11.4781 38.4652L9.25163 39.2449L9.00909 37.8501L11.3049 37.1484ZM8.89647 39.3748L8.22075 39.6088L7.93486 38.1793L8.65391 37.9627L8.89647 39.3748ZM8.95712 39.7473L13.0722 63.7101L8.29869 39.9813L8.95712 39.7473ZM15.264 76.4971L16.061 81.1666L15.8271 82.4488L15.4199 80.9847L5.64773 40.8996L7.97816 40.0332L15.264 76.4971ZM16.1303 85.5762L15.9397 86.7804L15.5672 85.7061L15.8184 84.3114L16.1303 85.5762ZM16.936 91.2074L17.2999 92.3596L17.2999 93.6244L16.7714 133.38L15.1427 133.068L16.936 91.2074ZM14.9088 132.982L13.436 132.731L16.3469 98.0254L14.9088 132.982ZM16.91 133.735L16.91 136.127L15.1773 135.875L15.2813 133.432L16.91 133.735ZM17.2825 133.805L18.5994 134.056L18.6687 136.386L17.2479 136.179L17.2825 133.805ZM18.6773 136.768L18.6773 137.469L17.2132 137.296L17.2132 136.56L18.6773 136.768ZM19.0499 136.82L20.6872 137.054L20.6872 137.703L19.0325 137.513L19.0499 136.82ZM20.7825 138.084L20.9211 140.467L19.1885 140.337L19.1191 137.885L20.7825 138.084ZM21.1637 138.128L22.4979 138.284L22.7231 140.606L21.2936 140.493L21.1637 138.128ZM22.7664 140.978L22.8357 141.68L21.363 141.61L21.363 140.865L22.7664 140.978ZM23.1389 140.978L24.785 141.108L24.8716 141.749L23.2082 141.671L23.1389 140.978ZM24.9149 142.122L25.2181 144.495L23.4855 144.495L23.2429 142.061L24.9149 142.122ZM25.2961 142.122L26.6389 142.191L27.0287 144.487L25.5993 144.487L25.2961 142.122ZM27.0894 144.859L27.2107 145.552L25.7379 145.552L25.6426 144.816L27.0894 144.859ZM27.4706 144.859L29.1253 144.859L29.2552 145.492L27.5919 145.492L27.4706 144.859ZM29.3245 145.881L29.7923 148.221L28.0597 148.333L27.6439 145.916L29.3245 145.881ZM29.7057 145.881L31.0485 145.881L31.603 148.151L30.1735 148.238L29.7057 145.881ZM31.6896 148.48L31.8542 149.165L30.3901 149.303L30.2429 148.576L31.6896 148.48ZM32.0708 148.48L33.7168 148.376L33.8901 149L32.2354 149.148L32.0708 148.48ZM33.9854 149.347L34.6265 151.651L32.8938 151.876L32.3134 149.503L33.9854 149.347ZM34.3666 149.347L35.7007 149.225L36.4198 151.452L34.999 151.634L34.3666 149.347ZM36.5324 151.807L36.749 152.483L35.2936 152.717L35.0943 151.998L36.5324 151.807ZM36.9049 151.755L38.5423 151.539L38.7589 152.154L37.1215 152.422L36.9049 151.755ZM38.8888 152.509L39.6772 154.77L37.9445 155.117L37.1994 152.777L38.8888 152.509ZM90.1149 146.219L133.752 151.348L133.423 153.133L88.928 146.635L90.1149 146.219ZM96.0753 146.549L134.107 149.433L133.821 150.975L96.0753 146.549ZM134.48 149.468L135.294 149.529L135.043 151.123L134.176 151.019L134.48 149.468ZM134.54 149.096L134.861 147.406L135.615 147.406L135.355 149.139L134.54 149.096ZM135.926 147.458L138.482 147.579L138.274 149.39L135.675 149.191L135.926 147.458ZM135.978 147.086L136.195 145.639L138.69 145.639L138.517 147.198L135.978 147.086ZM139.071 145.656L139.894 145.656L139.756 147.268L138.889 147.268L139.071 145.656ZM139.071 145.284L139.262 143.551L140.024 143.551L139.877 145.284L139.071 145.284ZM140.397 143.551L142.996 143.499L142.918 145.318L140.319 145.318L140.397 143.551ZM140.397 143.179L140.518 141.714L143.004 141.558L142.944 143.127L140.397 143.179ZM143.377 141.541L144.243 141.489L144.243 143.101L143.377 143.101L143.377 141.541ZM143.377 141.169L143.446 139.436L144.209 139.367L144.209 141.099L143.377 141.169ZM144.581 139.341L147.128 139.107L147.18 140.926L144.581 141.091L144.581 139.341ZM144.581 138.968L144.581 137.495L147.05 137.166L147.093 138.734L144.581 138.968ZM147.449 137.123L148.263 137.01L148.35 138.622L147.483 138.7L147.449 137.123ZM147.449 136.75L147.405 135.018L148.159 134.896L148.254 136.629L147.449 136.75ZM148.523 134.844L151.053 134.437L151.234 136.248L148.636 136.594L148.523 134.844ZM148.523 134.472L148.436 132.999L150.879 132.505L151.035 134.065L148.523 134.472ZM151.243 132.427L152.049 132.263L152.257 133.865L151.39 134.004L151.243 132.427ZM151.243 132.055L151.07 130.322L151.815 130.149L152.032 131.882L151.243 132.055ZM152.179 130.088L154.674 129.499L154.977 131.301L152.378 131.821L152.179 130.088ZM152.127 129.716L151.945 128.252L154.345 127.593L154.605 129.135L152.127 129.716ZM154.726 127.489L155.523 127.273L155.835 128.858L154.968 129.049L154.726 127.489ZM154.665 127.125L154.371 125.393L155.098 125.168L155.445 126.9L154.665 127.125ZM155.462 125.09L157.905 124.336L158.338 126.068L155.809 126.77L155.462 125.09ZM155.384 124.726L155.098 123.279L157.446 122.413L157.819 123.937L155.384 124.726ZM157.793 122.335L158.572 122.057L158.997 123.617L158.131 123.877L157.793 122.335ZM157.706 121.971L150.992 94.5514L158.468 121.702L157.706 121.971ZM147.908 81.9463L147.327 79.5812L147.613 78.0478L161.319 120.689L158.841 121.555L147.908 81.9463ZM146.756 74.1493L146.357 72.9105L149.926 30.3303L151.659 30.6509L146.756 74.1493ZM152.023 30.7202L153.634 31.0234L147.657 69.5058L152.023 30.7202ZM149.961 29.9578L150.169 27.4282L151.997 27.6967L151.702 30.2957L149.961 29.9578ZM149.597 29.8885L148.133 29.6113L148.237 27.1509L149.805 27.3762L149.597 29.8885ZM148.246 26.7784L148.246 25.9641L149.874 26.1546L149.805 27.021L148.246 26.7784ZM147.882 26.7178L146.149 26.4665L146.149 25.7215L147.882 25.9208L147.882 26.7178ZM146.149 25.3489L146.149 22.8106L147.986 22.9492L147.873 25.5482L146.149 25.3489ZM145.777 25.3056L144.304 25.1237L144.235 22.6633L145.811 22.7846L145.777 25.3056ZM144.217 22.2908L144.217 21.4851L145.846 21.5631L145.846 22.4294L144.217 22.2908ZM143.845 22.2908L142.112 22.1609L142.069 21.4072L143.801 21.4938L143.845 22.2908ZM142.043 21.0346L141.895 18.505L143.741 18.505L143.81 21.104L142.043 21.0346ZM141.67 21.0346L140.18 20.9653L139.938 18.5136L141.523 18.5136L141.67 21.0346ZM139.938 18.1411L139.86 17.3354L141.488 17.3354L141.54 18.2017L139.938 18.1411ZM139.565 18.1411L137.832 18.1411L137.737 17.396L139.47 17.396L139.565 18.1411ZM137.676 17.0149L137.347 14.5025L139.193 14.3899L139.444 16.9889L137.676 17.0149ZM137.304 17.0149L135.814 17.0149L135.398 14.5805L136.983 14.4852L137.304 17.0149ZM135.329 14.2253L135.199 13.4282L136.827 13.281L136.931 14.1473L135.329 14.2253ZM134.956 14.2253L133.224 14.3292L133.076 13.5928L134.809 13.4369L134.956 14.2253ZM132.998 13.229L132.496 10.7426L134.324 10.5L134.766 13.099L132.998 13.229ZM132.626 13.229L131.144 13.359L130.555 10.9679L132.123 10.76L132.626 13.229ZM130.469 10.63L130.269 9.84167L131.889 9.58172L132.054 10.4481L130.469 10.63ZM130.096 10.63L128.363 10.8639L128.164 10.1362L129.897 9.85896L130.096 10.63ZM128.069 9.76367L127.393 7.31194L129.195 6.9481L129.819 9.47777L128.069 9.76367ZM127.696 9.81565L126.224 10.0582L125.47 7.7018L127.029 7.38994L127.696 9.81565ZM125.357 7.34663L125.106 6.57558L126.7 6.20307L126.925 7.0694L125.357 7.34663ZM124.993 7.42457L123.261 7.77112L123.018 7.06073L124.751 6.6622L124.993 7.42457ZM122.905 6.71417L122.039 4.31448L123.772 3.82933L124.569 6.30702L122.905 6.71417ZM72.9529 16.7636L29.3159 11.6436L29.6538 9.85028L74.1398 16.3478L72.9529 16.7636ZM66.9926 16.4431L28.9693 13.5495L29.2552 12.0075L66.9926 16.4431ZM28.5968 13.5236L27.7738 13.4629L28.0251 11.8602L28.8914 11.9641L28.5968 13.5236ZM28.5275 13.8874L28.2156 15.6201L27.4532 15.6201L27.7218 13.8874L28.5275 13.8874ZM27.0807 15.5334L24.4817 15.4122L24.6897 13.6015L27.2886 13.8007L27.0807 15.5334ZM27.0201 15.8973L26.7948 17.3527L24.2998 17.3527L24.4384 15.776L27.0201 15.8973ZM23.9273 17.3354L23.1043 17.3354L23.2429 15.724L24.1092 15.7673L23.9273 17.3354ZM23.9273 17.7079L23.7367 19.4406L22.9743 19.4406L23.1216 17.7079L23.9273 17.7079ZM22.6018 19.4406L20.0028 19.5012L20.0808 17.6819L22.6797 17.6819L22.6018 19.4406ZM22.6018 19.8131L22.4805 21.2772L19.9942 21.4332L20.0635 19.8651L22.6018 19.8131ZM19.6216 21.4591L18.7553 21.5111L18.7553 19.8911L19.6216 19.8911L19.6216 21.4591ZM19.6216 21.8316L19.5523 23.5643L18.7899 23.6336L18.7899 21.901L19.6216 21.8316ZM18.4174 23.6596L15.8704 23.8848L15.8184 22.0656L18.4174 21.9096L18.4174 23.6596ZM18.4174 24.0322L18.4174 25.5049L15.9397 25.8254L15.9397 24.2574L18.4174 24.0322ZM15.5585 25.8774L14.7442 25.9814L14.6489 24.37L15.5152 24.292L15.5585 25.8774ZM15.5585 26.25L15.6105 27.9826L14.8568 28.1039L14.7529 26.3712L15.5585 26.25ZM14.4843 28.1558L11.9546 28.563L11.7727 26.7524L14.3717 26.4059L14.4843 28.1558ZM14.4843 28.5284L14.5622 29.9925L12.1192 30.4949L11.9633 28.9356L14.4843 28.5284ZM11.7553 30.5643L10.9497 30.7289L10.7504 29.1261L11.6168 28.9875L11.7553 30.5643ZM11.7553 30.9368L11.9286 32.6694L11.1836 32.8427L10.967 31.1101L11.7553 30.9368ZM10.8284 32.912L8.33333 33.4925L8.02147 31.6992L10.6205 31.1707L10.8284 32.912ZM10.8284 33.2846L11.019 34.74L8.61056 35.407L8.35068 33.8563L10.8284 33.2846ZM8.22937 35.511L7.44104 35.7276L7.1205 34.1422L7.98683 33.9429L8.22937 35.511ZM8.29002 35.8749L8.58459 37.6075L7.85686 37.8328L7.51036 36.1001L8.29002 35.8749ZM7.50169 37.9107L5.04996 38.6644L4.61679 36.9318L7.15513 36.23L7.50169 37.9107ZM7.57101 38.2746L7.86552 39.7214L5.50914 40.5877L5.13656 39.063L7.57101 38.2746ZM5.16258 40.6743L4.39154 40.9429L3.95837 39.3835L4.82471 39.1323L5.16258 40.6743ZM5.24919 41.0295L11.9633 68.4575L4.51283 41.3067L5.24919 41.0295ZM15.0561 81.0626L15.6365 83.4191L15.3506 84.9524L1.65396 42.303L4.13165 41.4367L15.0561 81.0626ZM16.1996 88.8596L16.5982 90.0898L13.0289 132.679L11.2962 132.349L16.1996 88.8596ZM10.9323 132.28L9.32095 131.986L15.3073 93.5031L10.9323 132.28ZM12.9942 133.051L12.7863 135.572L10.967 135.312L11.2529 132.713L12.9942 133.051ZM13.3667 133.12L14.8222 133.398L14.7268 135.858L13.1761 135.589L13.3667 133.12ZM14.7096 136.231L14.7096 137.036L13.0809 136.846L13.1588 135.979L14.7096 136.231ZM15.0734 136.282L16.8061 136.534L16.8061 137.287L15.0734 137.08L15.0734 136.282ZM16.8061 137.66L16.8061 140.19L14.9694 140.051L15.0821 137.452L16.8061 137.66ZM17.1786 137.703L18.6513 137.877L18.7293 140.337L17.1439 140.224L17.1786 137.703ZM18.738 140.718L18.738 141.524L17.1006 141.446L17.1006 140.58L18.738 140.718ZM19.1105 140.718L20.8431 140.848L20.8865 141.602L19.1538 141.515L19.1105 140.718ZM20.9125 141.974L21.0597 144.504L19.2144 144.504L19.1452 141.905L20.9125 141.974ZM21.285 141.974L22.7751 142.044L23.0176 144.495L21.4323 144.495L21.285 141.974ZM23.0176 144.868L23.1043 145.674L21.4669 145.674L21.4149 144.807L23.0176 144.868ZM23.3988 144.868L25.1315 144.868L25.2268 145.613L23.4941 145.613L23.3988 144.868ZM25.2874 145.994L25.6079 148.506L23.7713 148.628L23.5115 146.029L25.2874 145.994ZM25.6599 145.994L27.15 145.994L27.5659 148.42L25.9805 148.524L25.6599 145.994ZM27.6265 148.766L27.7652 149.563L26.1365 149.711L26.0238 148.844L27.6265 148.766ZM27.999 148.766L29.7317 148.662L29.879 149.399L28.1463 149.555L27.999 148.766ZM29.9656 149.763L30.4594 152.249L28.6401 152.492L28.1983 149.893L29.9656 149.763ZM30.3381 149.763L31.8196 149.624L32.4 152.024L30.8319 152.232L30.3381 149.763ZM32.4953 152.362L32.6859 153.15L31.0745 153.41L30.9013 152.544L32.4953 152.362ZM32.8591 152.31L34.5918 152.084L34.7911 152.812L33.0584 153.089L32.8591 152.31ZM34.895 153.176L35.5621 155.619L33.7601 155.992L33.145 153.462L34.895 153.176ZM35.2589 153.115L36.7317 152.881L37.4854 155.229L35.926 155.55L35.2589 153.115ZM37.598 155.584L37.8492 156.355L36.2552 156.728L36.0299 155.905L37.598 155.584ZM37.9618 155.515L39.6945 155.16L39.9458 155.87L38.2131 156.277L37.9618 155.515ZM40.0497 156.225L40.916 158.617L39.14 159.11L38.343 156.633L40.0497 156.225ZM132.964 155.255L91.3798 147.458L133.284 153.522L132.964 155.255ZM134.636 153.367L133.717 153.228L134.055 151.435L134.922 151.53L134.636 153.367ZM138.04 151.53L135.346 151.209L135.597 149.598L138.24 149.797L138.04 151.53ZM139.574 149.529L138.647 149.459L138.855 147.64L139.721 147.683L139.574 149.529ZM142.84 147.458L140.128 147.328L140.267 145.708L142.866 145.708L142.84 147.458ZM144.226 145.362L143.299 145.362L143.377 143.534L144.243 143.534L144.226 145.362ZM147.336 143.075L144.624 143.127L144.624 141.498L147.223 141.333L147.336 143.075ZM148.575 140.883L147.648 140.935L147.596 139.107L148.462 139.029L148.575 140.883ZM151.52 138.379L148.817 138.622L148.722 137.002L151.321 136.646L151.52 138.379ZM152.595 136.109L151.676 136.231L151.494 134.411L152.361 134.273L152.595 136.109ZM155.358 133.415L152.681 133.848L152.473 132.228L155.072 131.7L155.358 133.415ZM156.277 131.076L155.41 131.258L155.098 129.456L155.965 129.257L156.277 131.076ZM158.876 128.191L156.277 128.806L155.956 127.203L158.503 126.502L158.876 128.191ZM159.629 125.791L158.763 126.043L158.33 124.258L159.196 124.007L159.629 125.791ZM161.986 122.742L159.387 123.539L158.954 121.962L161.449 121.096L161.986 122.742ZM162.557 120.299L161.691 120.602L151.789 89.7519L162.557 120.299ZM155.878 31.4999L147.544 76.5491L147.163 75.3535L154.033 31.1707L155.878 31.4999ZM154.145 28.0346L153.73 30.6856L152.109 30.3736L152.404 27.7747L154.145 28.0346ZM152.179 26.4492L152.075 27.3155L150.247 27.0556L150.316 26.1893L152.179 26.4492ZM150.204 23.1398L149.978 25.8168L148.341 25.6175L148.454 23.0185L150.204 23.1398ZM148.133 21.6931L148.133 22.6114L146.288 22.464L146.288 21.5977L148.133 21.6931ZM145.933 18.5309L145.933 21.2166L144.278 21.1386L144.209 18.5396L145.933 18.5309ZM143.767 17.2314L143.767 18.1497L141.913 18.1497L141.861 17.2834L143.767 17.2314ZM141.341 14.2339L141.497 16.9109L139.842 16.9109L139.582 14.3119L141.341 14.2339ZM139.089 13.0817L139.175 13.9481L137.33 14.0694L137.217 13.203L139.089 13.0817ZM136.49 10.2575L136.827 12.9171L135.181 13.0644L134.74 10.4654L136.49 10.2575ZM134.159 9.26986L134.315 10.1362L132.478 10.3788L132.305 9.51246L134.159 9.26986ZM131.335 6.62756L131.863 9.22655L130.235 9.48644L129.611 6.93943L131.335 6.62756ZM128.944 5.80454L129.16 6.67087L127.341 7.04338L127.116 6.17705L128.944 5.80454ZM125.938 3.36148L126.657 5.96047L125.045 6.33299L124.248 3.83795L125.938 3.36148ZM123.495 2.70306L123.772 3.56939L121.987 4.06321L121.701 3.24885L123.495 2.70306ZM120.333 0.476639L121.199 3.01498L79.615 15.776L77.5531 16.3478L76.0804 16.0706L120.333 0.476639ZM30.1042 7.78846L71.6881 15.5854L29.7923 9.46909L30.1042 7.78846ZM28.4322 9.67706L29.3505 9.80697L29.0213 11.609L28.155 11.505L28.4322 9.67706ZM25.0275 11.5137L27.7218 11.8255L27.4706 13.4369L24.8716 13.2377L25.0275 11.5137ZM23.4941 13.5149L24.4211 13.5842L24.2218 15.4035L23.3555 15.4035L23.4941 13.5149ZM20.2281 15.5768L22.9397 15.7067L22.8097 17.3354L20.1588 17.3354L20.2281 15.5768ZM18.8419 17.6819L19.7689 17.6819L19.691 19.5099L18.8246 19.5099L18.8419 17.6819ZM15.7318 19.9691L18.4434 19.9084L18.4434 21.5457L15.8011 21.7103L15.7318 19.9691ZM14.493 22.1608L15.42 22.1002L15.4719 23.9281L14.6056 24.0061L14.493 22.1608ZM11.5474 24.6559L14.2504 24.4133L14.3457 26.042L11.7467 26.3885L11.5474 24.6559ZM10.4732 26.9257L11.3915 26.8044L11.5735 28.6324L10.7071 28.771L10.4732 26.9257ZM7.70959 29.6286L10.3866 29.1954L10.5945 30.8155L7.9955 31.3439L7.70959 29.6286ZM6.79129 31.9677L7.70093 31.7858L8.01279 33.5877L7.14647 33.787L6.79129 31.9677ZM4.1923 34.8526L6.79129 34.2375L7.11183 35.8316L4.56482 36.5419L4.1923 34.8526ZM3.44726 37.2437L4.3136 37.0011L4.74676 38.7337L3.88043 38.9936L3.44726 37.2437ZM1.04751 40.2931L3.64651 39.4961L4.07966 41.0642L1.58464 41.9305L1.04751 40.2931ZM0.467085 42.7362L1.33342 42.4243L11.2356 73.283L0.467085 42.7362ZM7.15513 131.535L15.4806 86.4859L15.8617 87.6727L8.99174 131.856L7.15513 131.535ZM8.8878 135L9.30366 132.349L10.9237 132.653L10.6291 135.252L8.8878 135ZM10.8544 136.586L10.9583 135.719L12.7863 135.988L12.717 136.854L10.8544 136.586ZM12.8296 139.895L13.0548 137.218L14.6922 137.409L14.5796 140.008L12.8296 139.895ZM14.9088 141.307L14.9088 140.389L16.7628 140.528L16.7628 141.394L14.9088 141.307ZM17.1092 144.461L17.1092 141.784L18.764 141.862L18.8419 144.461L17.1092 144.461ZM19.2404 145.726L19.2404 144.859L21.0857 144.859L21.1377 145.726L19.2404 145.726ZM21.6575 148.732L21.5016 146.055L23.1563 146.055L23.4162 148.654L21.6575 148.732ZM23.91 149.875L23.8233 148.966L25.6686 148.853L25.7812 149.719L23.91 149.875ZM26.509 152.708L26.1624 150.04L27.8085 149.893L28.2503 152.492L26.509 152.708ZM28.8394 153.696L28.6835 152.829L30.5201 152.587L30.6847 153.453L28.8394 153.696ZM31.655 156.295L31.1265 153.696L32.7552 153.427L33.379 155.974L31.655 156.295ZM34.0547 157.161L33.8295 156.295L35.6487 155.931L35.874 156.797L34.0547 157.161ZM37.0522 159.604L36.3331 157.005L37.9445 156.633L38.7415 159.128L37.0522 159.604ZM39.4952 160.254L39.218 159.388L41.0027 158.894L41.2886 159.708L39.4952 160.254ZM41.765 159.951L83.3489 147.181L85.4107 146.609L86.8835 146.886L42.7007 162.48L41.765 159.951Z" fill="url(#paint0_linear)"/>
</g>
<defs>
<linearGradient id="paint0_linear" x1="81.5036" y1="0.0001222" x2="81.5036" y2="162.991" gradientUnits="userSpaceOnUse">
<stop stop-color="#3DDEED"/>
<stop offset="1" stop-color="#CB00DD"/>
</linearGradient>
<clipPath id="clip0">
<rect width="163" height="163" fill="white" transform="translate(163) rotate(90)"/>
</clipPath>
</defs>
</svg>
