<svg width="45" height="45" viewBox="0 0 45 45" fill="none" xmlns="http://www.w3.org/2000/svg">
<path d="M36.9511 44.2296C27.3268 45.2568 17.6732 45.2568 8.04886 44.2296C4.2112 43.82 1.18 40.7888 0.770416 36.9508C-0.256805 27.3264 -0.256805 17.6732 0.770416 8.04886C1.18 4.2112 4.2112 1.18 8.04886 0.770416C17.6732 -0.256805 27.3264 -0.256805 36.9508 0.770416C40.7888 1.18 43.82 4.2112 44.2296 8.04886C45.2568 17.6732 45.2568 27.3264 44.2296 36.9508C43.82 40.7888 40.7891 43.82 36.9511 44.2296Z" fill="url(#paint0_linear)"/>
<path d="M41.782 9.67649C41.4188 6.27108 38.7292 3.58114 35.3234 3.21756C26.783 2.30639 18.2171 2.30639 9.67656 3.21756C6.27114 3.58114 3.5812 6.27108 3.21762 9.67649C2.30645 18.217 2.30645 26.7829 3.21762 35.323C3.5812 38.7288 6.27114 41.4187 9.67656 41.782C18.2171 42.6935 26.783 42.6935 35.3231 41.782C38.7289 41.4187 41.4188 38.7288 41.782 35.323C42.6936 26.7829 42.6936 18.217 41.782 9.67649Z" fill="url(#paint1_linear)"/>
<path d="M0.674286 36.0181C0.705185 36.3291 0.737114 36.6402 0.770416 36.9512C1.18 40.7889 4.2112 43.8201 8.0492 44.2297C17.6736 45.2569 27.3268 45.2569 36.9511 44.2297C40.7891 43.8201 43.82 40.7889 44.2296 36.9512C44.2629 36.6402 44.2948 36.3291 44.3261 36.0181H0.674286Z" fill="url(#paint2_linear)"/>
<path d="M36.9511 44.2297C40.7891 43.8201 43.82 40.7889 44.2296 36.9509C44.679 32.7424 44.9317 28.5285 44.988 24.3135L35.2129 14.5388C34.711 13.9167 34.2571 13.859 33.3164 13.6753C32.5542 13.5263 31.7745 13.4247 30.999 13.3941C28.5191 13.2963 26.0376 13.2032 23.5561 13.1795C19.9124 13.1449 16.268 13.1569 12.6387 13.5785C11.0739 13.7601 9.41974 14.9875 9.24225 16.6605C9.15127 17.5202 8.99334 18.3751 8.94424 19.2368C8.76468 22.3751 8.72726 25.5117 9.16603 28.6377C9.31297 29.6844 9.47468 30.1634 10.1802 30.747L24.4195 44.9863C28.5988 44.9269 32.7777 44.6749 36.9511 44.2297Z" fill="url(#paint3_linear)"/>
<path d="M23.2711 32.1858C19.6387 32.0639 16.8273 31.9946 14.0192 31.8607C13.1623 31.8195 12.2803 31.7031 11.4687 31.4394C9.97489 30.9547 9.12276 29.8622 8.90132 28.2846C8.46255 25.1587 8.49997 22.0221 8.67953 18.8838C8.72897 18.022 8.8869 17.1672 8.97788 16.3075C9.15469 14.6345 10.8092 13.4067 12.374 13.2255C16.0036 12.8039 19.6477 12.7918 23.2917 12.8265C25.7732 12.8502 28.2544 12.9433 30.7342 13.0411C31.5098 13.0717 32.2895 13.1736 33.0517 13.3223C34.7312 13.6502 35.7028 14.7007 35.9988 16.3882C36.3991 18.6713 36.5038 20.9763 36.4197 23.2824C36.3562 25.0279 36.1763 26.7706 35.9953 28.5092C35.7955 30.428 34.1342 31.5644 32.638 31.6629C29.247 31.8864 25.8522 32.0451 23.2711 32.1858Z" fill="url(#paint4_linear)"/>
<path d="M19.8458 26.7451C22.1907 25.3055 24.4782 23.9003 26.8344 22.4536C24.483 21.0085 22.1958 19.603 19.8458 18.1589V26.7451Z" fill="white"/>
<defs>
<linearGradient id="paint0_linear" x1="10.2368" y1="-1.12543" x2="42.6617" y2="61.3421" gradientUnits="userSpaceOnUse">
<stop stop-color="#FFFCF8"/>
<stop offset="0.1875" stop-color="#FAF8F6"/>
<stop offset="0.4041" stop-color="#ECEEF2"/>
<stop offset="0.6353" stop-color="#D5DCEA"/>
<stop offset="0.875" stop-color="#B5C4DF"/>
<stop offset="1" stop-color="#A1B5D8"/>
</linearGradient>
<linearGradient id="paint1_linear" x1="17.2593" y1="19.5521" x2="-58.976" y2="-23.3303" gradientUnits="userSpaceOnUse">
<stop stop-color="#A1B5D8" stop-opacity="0"/>
<stop offset="0.3094" stop-color="#90A2BD" stop-opacity="0.309804"/>
<stop offset="0.7554" stop-color="#7C8B9C" stop-opacity="0.756863"/>
<stop offset="1" stop-color="#748290"/>
</linearGradient>
<linearGradient id="paint2_linear" x1="22.5" y1="39.7237" x2="22.5" y2="46.738" gradientUnits="userSpaceOnUse">
<stop stop-color="#A1B5D8" stop-opacity="0"/>
<stop offset="0.3094" stop-color="#90A2BD" stop-opacity="0.309804"/>
<stop offset="0.7554" stop-color="#7C8B9C" stop-opacity="0.756863"/>
<stop offset="1" stop-color="#748290"/>
</linearGradient>
<linearGradient id="paint3_linear" x1="37.2222" y1="37.1703" x2="6.35059" y2="6.29873" gradientUnits="userSpaceOnUse">
<stop stop-color="#A1B5D8" stop-opacity="0"/>
<stop offset="0.3094" stop-color="#90A2BD" stop-opacity="0.309804"/>
<stop offset="0.7554" stop-color="#7C8B9C" stop-opacity="0.756863"/>
<stop offset="1" stop-color="#748290"/>
</linearGradient>
<linearGradient id="paint4_linear" x1="20.7981" y1="17.5685" x2="24.9307" y2="29.6016" gradientUnits="userSpaceOnUse">
<stop stop-color="#E52D27"/>
<stop offset="1" stop-color="#B31217"/>
</linearGradient>
</defs>
</svg>
