<svg width="945" height="686" viewBox="0 0 945 686" fill="none" xmlns="http://www.w3.org/2000/svg">
<g style="mix-blend-mode:multiply">
<g style="mix-blend-mode:multiply">
<path d="M811.115 -50.4649C809.876 -15.2095 805.24 19.9688 797.23 54.8811C793.659 70.3934 789.182 86.1688 776.844 99.8602C745.185 134.774 672.492 145.213 608.145 146.937C548.721 148.565 489.197 145.8 430.828 138.698C373.073 131.652 315.682 120.323 256.867 121.84C198.053 123.357 135.229 141.522 114.891 175.844C102.794 196.258 107.641 219.46 121.814 239.347C135.988 259.233 158.779 276.265 183.005 291.972C210.738 309.951 241.902 327.751 253.233 351.619C264.897 376.295 251.302 405.001 219.797 421.774C174.929 445.647 109.223 442.958 50.1969 443.967C-24.761 445.26 -102.2 455.474 -161.353 484.071C-220.506 512.668 -256.825 562.832 -234.66 607.347" stroke="#0145FF" stroke-miterlimit="10"/>
</g>
<g style="mix-blend-mode:multiply">
<path d="M796.075 -55.6187C794.891 -20.9722 790.163 13.5931 781.919 47.8681C778.273 63.0894 773.719 78.5924 761.548 92.0116C737.07 118.972 688.351 131.493 638.06 136.802C624.502 138.217 610.834 139.187 597.112 139.708C539.163 142.034 480.977 140.063 423.784 133.835C367.223 127.624 310.875 117.037 253.149 118.967C220.771 120.04 187.259 125.649 159.55 135.952C135.424 144.931 115.635 157.599 105.534 173.976C103.739 176.891 102.264 179.877 101.118 182.916C94.0852 201.593 99.6432 221.724 111.958 239.517C115.943 245.197 120.516 250.71 125.649 256.023C138.918 269.9 155.481 282.556 172.529 294.63C199.475 313.774 228.251 332.87 238.252 357.264C248.253 381.658 235.323 409.181 204.665 425.653C161.037 449.113 97.5218 447.259 40.6721 449.039C36.213 449.18 31.7086 449.349 27.2193 449.566C-40.6499 452.727 -108.959 464.028 -161.401 490.634C-217.38 519.025 -250.932 567.808 -228.389 610.924" stroke="#0145FF" stroke-miterlimit="10"/>
</g>
<g style="mix-blend-mode:multiply">
<path d="M780.901 -60.7065C779.793 -26.6649 774.978 7.29172 766.488 40.9306C762.736 55.8608 758.107 71.054 746.133 84.2384C722.108 110.729 674.854 123.447 626.03 129.236C612.83 130.788 599.511 131.917 586.125 132.619C529.631 135.577 472.773 134.337 416.757 128.925C361.39 123.587 306.054 113.779 249.371 116.057C216.026 117.468 181.561 123.105 152.749 133.492C127.715 142.528 106.944 155.412 96.1628 172.137C94.2361 175.119 92.6494 178.181 91.4145 181.302C83.8373 200.523 89.6068 221.256 102.118 239.677C106.136 245.552 110.739 251.265 115.9 256.784C129.213 271.178 145.505 284.567 162.038 297.298C188.183 317.596 214.54 337.914 223.256 362.899C231.474 386.599 219.3 413.333 189.519 429.523C147.115 452.56 85.852 451.523 31.1485 454.092C26.8053 454.286 22.4923 454.524 18.2096 454.806C-46.9995 458.85 -111.953 470.752 -161.478 497.198C-214.207 525.354 -245.053 572.794 -222.117 614.52" stroke="#0145FF" stroke-miterlimit="10"/>
</g>
<g style="mix-blend-mode:multiply">
<path d="M765.801 -65.8041C764.746 -32.3606 759.834 0.993532 751.101 34.002C747.244 48.6411 742.494 63.5151 730.762 76.4741C707.191 102.495 661.388 115.401 613.954 121.64C601.143 123.321 588.202 124.591 575.182 125.446C520.156 129.096 464.626 128.65 409.774 124.118C355.51 119.597 301.217 110.549 245.683 113.202C211.385 114.848 175.878 120.551 145.962 131.023C120.022 140.115 98.192 153.188 86.7911 170.278C84.7424 173.334 83.0544 176.479 81.7404 179.687C73.5888 199.435 79.5849 220.759 92.2625 239.847C96.3303 245.903 100.952 251.809 106.104 257.536C119.448 272.456 135.543 286.492 151.532 299.937C176.876 321.409 200.95 342.957 208.23 368.516C214.845 391.652 203.216 417.541 174.326 433.403C133.162 456.026 74.0453 455.853 21.5787 459.172C17.4471 459.435 13.3054 459.73 9.15365 460.056C-53.3651 465 -115.039 477.513 -161.465 503.705C-210.944 531.626 -239.099 577.732 -215.755 618.06" stroke="#0145FF" stroke-miterlimit="10"/>
</g>
<g style="mix-blend-mode:multiply">
<path d="M750.672 -70.9388C749.698 -38.1094 744.714 -5.3726 735.761 26.9893C731.813 41.3468 726.957 55.8921 715.437 68.6257C692.38 94.2151 647.998 107.29 601.955 113.979C589.378 115.821 576.681 117.193 564.24 118.217C510.697 122.54 456.514 122.857 402.852 119.161C349.722 115.513 296.442 107.32 241.95 110.339C206.67 112.257 170.195 117.998 139.176 128.555C112.359 137.703 89.4865 150.973 77.4204 168.42C75.2495 171.548 73.4552 174.771 72.0523 178.064C63.3412 198.365 69.579 220.271 82.4076 239.998C86.5281 246.259 91.189 252.377 96.3702 258.326C109.729 273.781 125.612 288.474 141.072 302.624C165.645 325.251 187.391 347.963 193.265 374.17C198.308 396.686 187.253 421.655 159.21 437.254C119.331 459.436 62.3606 460.127 12.1007 464.197C8.14038 464.516 4.1347 464.883 0.204591 465.259C-59.654 471.086 -118.003 484.236 -161.405 510.203C-207.604 537.851 -233.099 582.643 -209.376 621.571" stroke="#0145FF" stroke-miterlimit="10"/>
</g>
<g style="mix-blend-mode:multiply">
<path d="M735.573 -76.0551C734.659 -43.8294 729.587 -11.7003 720.406 20.0232C716.367 34.0801 711.451 48.2686 700.081 60.8145C677.417 85.8967 634.562 99.1871 589.909 106.346C577.681 108.31 565.331 109.86 553.284 111.016C501.205 116.013 448.35 117.105 395.855 114.269C343.889 111.475 291.576 104.165 238.218 107.456C201.955 109.685 164.452 115.482 132.39 126.085C104.651 135.281 80.7656 148.766 68.0646 166.571C65.7662 169.771 63.8556 173.073 62.3488 176.449C53.0481 197.249 59.5578 219.793 72.5677 240.159C76.7335 246.614 81.4187 252.934 86.6057 259.097C99.9793 275.087 115.681 290.419 130.657 305.244C154.428 329.008 173.846 352.903 178.269 379.805C181.862 401.683 171.245 425.816 144.004 441.161C105.303 462.949 50.5698 464.447 2.45621 469.305C-1.33282 469.694 -5.12194 470.107 -8.91098 470.546C-66.0943 477.283 -121.103 491.007 -161.512 516.785C-204.537 544.226 -227.235 587.656 -203.074 625.223" stroke="#0145FF" stroke-miterlimit="10"/>
</g>
<g style="mix-blend-mode:multiply">
<path d="M720.473 -81.1714C719.615 -49.5514 714.45 -18.0326 705.034 13.0477C700.95 26.8512 695.792 40.7392 684.725 53.0221C662.53 77.6443 621.141 91.1317 577.879 98.7412C566.103 100.817 554.086 102.518 542.386 103.89C491.756 109.552 440.212 111.397 388.872 109.387C338.055 107.438 286.769 101.011 234.59 104.583C197.254 107.122 158.814 112.9 125.588 123.607C96.9723 132.877 72.0438 146.542 58.7079 164.703C56.3006 167.976 54.2939 171.356 52.7047 174.816C42.8749 196.188 49.5961 219.278 62.7419 240.31C67.0029 247.051 71.8082 253.455 76.9007 259.849C90.2742 276.364 105.749 292.363 120.135 307.93C143.196 332.849 160.392 357.806 163.273 385.44C165.445 406.623 155.146 429.92 128.902 444.984C91.456 466.368 38.899 468.692 -7.02303 474.33C-10.6962 474.734 -14.2635 475.241 -17.8611 475.749C-72.3843 483.368 -124.173 497.777 -161.393 523.321C-201.183 550.517 -221.206 592.585 -196.681 628.744" stroke="#0145FF" stroke-miterlimit="10"/>
</g>
<g style="mix-blend-mode:multiply">
<path d="M705.358 -86.297C704.57 -55.2789 699.317 -24.3659 689.663 6.07237C685.428 19.5566 680.24 33.1629 669.369 45.2111C647.703 69.3167 607.72 83.0387 565.863 91.0895C554.375 93.344 542.796 95.1479 531.368 96.6512C482.234 103.011 432.042 105.648 381.89 104.505C332.251 103.42 281.948 97.8653 230.766 101.701C192.538 104.568 153.161 110.346 118.801 121.138C89.2788 130.465 63.3224 144.336 49.3062 162.863C46.7724 166.206 44.6592 169.666 42.9856 173.211C32.5964 195.119 39.5744 218.799 52.8712 240.489C57.1171 247.39 61.9827 254.113 67.1357 260.62C80.4939 277.689 95.6812 294.392 109.659 310.589C131.934 336.672 146.953 362.699 148.292 391.047C149.254 411.629 139.213 434.128 113.755 448.854C77.5185 469.806 27.1832 472.984 -16.5624 479.392C-19.9937 479.89 -23.4553 480.425 -26.8715 480.989C-78.7195 489.501 -127.198 504.5 -161.471 529.809C-198.011 556.77 -215.342 597.505 -190.394 632.274" stroke="#0145FF" stroke-miterlimit="10"/>
</g>
<g style="mix-blend-mode:multiply">
<path d="M690.169 -91.3567C689.473 -60.9603 684.162 -30.6717 674.308 -0.893445C669.967 12.2997 664.658 25.5868 654.03 37.4095C632.742 61.0926 594.255 74.899 553.834 83.4661C542.739 85.8145 531.507 87.7967 520.427 89.4597C472.739 96.5136 423.849 99.942 374.833 99.6696C326.297 99.4015 276.976 94.739 226.943 98.8749C187.824 102.014 147.464 107.802 112.076 118.632C81.6619 128.005 54.6625 142.074 40.0114 160.977C37.3463 164.386 35.1215 167.922 33.3582 171.55C22.4096 194.012 29.6142 218.265 43.0922 240.612C47.3683 247.72 52.2793 254.64 57.4019 261.372C70.8054 278.958 85.8415 296.281 99.2149 313.228C120.627 340.523 133.575 367.593 133.251 396.617C133.05 416.495 123.16 438.205 98.5791 452.63C63.5972 473.253 15.4838 477.286 -26.176 484.388C-29.4562 484.961 -32.7063 485.553 -35.9713 486.173C-85.1441 495.576 -130.313 511.205 -161.547 536.297C-194.867 563.024 -209.478 602.406 -184.167 635.766" stroke="#0145FF" stroke-miterlimit="10"/>
</g>
<g style="mix-blend-mode:multiply">
<path d="M675.13 -96.529C674.483 -66.7157 669.059 -37.0157 658.937 -7.86855C654.49 5.0335 649.136 17.9732 638.674 29.5987C617.839 52.8123 580.819 66.8158 541.803 75.8428C531.071 78.3226 520.218 80.4457 509.47 82.2776C463.272 89.987 415.735 94.1691 367.911 94.7314C320.509 95.3365 272.276 91.6692 223.286 95.9458C183.123 99.4893 141.796 105.258 105.229 116.201C73.908 125.631 45.8958 139.915 30.5795 159.156C27.7832 162.63 25.442 166.238 23.5787 169.946C12.1613 192.905 19.517 217.797 33.146 240.801C37.4825 248.096 42.4237 255.223 47.5463 262.162C60.9648 280.283 75.789 298.263 88.6786 315.887C109.411 344.317 120.318 372.411 118.301 402.28C116.996 421.473 107.242 442.367 83.4624 456.538C49.6748 476.663 3.75295 481.512 -35.6246 489.45C-38.7234 490.08 -41.8223 490.728 -44.8607 491.432C-91.3582 501.728 -133.232 517.976 -161.443 542.842C-191.438 569.287 -203.418 607.373 -177.713 639.325" stroke="#0145FF" stroke-miterlimit="10"/>
</g>
<g style="mix-blend-mode:multiply">
<path d="M660.031 -101.645C659.429 -72.4323 653.916 -43.3375 643.581 -14.8346C639.044 -2.23305 633.509 10.425 623.333 21.797C602.953 44.541 567.413 58.7321 529.758 68.2097C519.464 70.8492 508.913 73.1037 498.513 75.0952C453.781 83.4701 407.574 88.4277 360.914 89.8586C314.766 91.2429 267.515 88.5427 219.568 93.0727C178.408 96.9543 136.083 102.705 98.4432 113.732C66.2149 123.218 37.19 137.662 21.2085 157.298C18.3075 160.858 15.8703 164.557 13.9204 168.36C1.85297 191.892 9.54106 217.328 23.3362 240.98C27.718 248.473 32.6894 255.825 37.827 262.942C51.2605 281.598 65.8276 300.245 78.2031 318.601C98.0884 348.178 107.136 377.314 103.305 407.972C100.973 426.47 91.1737 446.621 68.3009 460.455C35.7529 480.167 -7.99253 485.861 -45.1634 494.568C-48.096 495.264 -51.0134 495.968 -53.8704 496.673C-97.7078 507.869 -136.256 524.737 -161.429 549.387C-188.28 575.625 -197.463 612.33 -171.35 642.902" stroke="#0145FF" stroke-miterlimit="10"/>
</g>
<g style="mix-blend-mode:multiply">
<path d="M644.932 -106.761C644.394 -78.1496 638.787 -49.6608 628.211 -21.8098C623.537 -9.51804 617.942 2.8395 607.978 13.9861C588.066 36.27 553.978 50.6488 517.804 60.6146C507.827 63.3573 497.684 65.7901 487.617 67.9319C444.324 76.9848 399.405 82.6967 353.871 84.9391C308.872 87.2435 262.695 85.4728 215.836 90.1906C173.708 94.4478 130.34 100.114 91.6575 111.263C58.5827 120.768 28.4694 135.494 11.8531 155.449C8.82846 159.078 6.27989 162.853 4.23228 166.736C-8.39453 190.822 -0.464717 216.841 13.4965 241.141C17.9085 248.84 22.91 256.38 28.0628 263.713C41.5263 282.914 55.8666 302.209 67.6978 321.26C86.7969 352 94.0455 382.16 88.3097 413.607C85.0407 431.411 75.1358 450.783 53.1699 464.315C21.8464 483.624 -19.7226 490.144 -54.7019 499.631C-57.4682 500.373 -60.1892 501.162 -62.9253 501.941C-104.087 514.011 -139.401 531.516 -161.505 555.932C-185.182 581.906 -191.599 617.307 -165.138 646.441" stroke="#0145FF" stroke-miterlimit="10"/>
</g>
<g style="mix-blend-mode:multiply">
<path d="M629.864 -111.915C629.4 -83.8899 623.687 -55.9922 612.84 -28.7855C608.061 -16.7285 602.375 -4.72779 592.638 6.18407C573.149 27.9984 540.542 42.5649 505.714 52.9531C496.084 55.8178 486.334 58.4009 476.599 60.7116C434.824 70.4588 391.273 76.9657 346.935 80.0847C303.008 83.2247 257.904 82.4023 212.088 87.3172C168.947 91.9783 124.718 97.5972 84.8562 108.803C50.8442 118.383 19.7181 133.25 2.48191 153.59C-0.668704 157.289 -3.32374 161.143 -5.45629 165.112C-18.6425 189.734 -10.471 216.334 3.62617 241.301C8.1137 249.197 13.1606 256.953 18.3132 264.492C31.8372 284.257 45.89 304.162 57.2222 323.917C75.3536 355.841 81.0906 387.015 73.2989 419.233C69.1534 436.341 59.1125 454.934 38.0084 468.176C7.92437 487.052 -31.4531 494.426 -64.271 504.673C-66.8409 505.481 -69.4258 506.317 -71.9503 507.172C-110.452 520.142 -142.426 538.258 -161.507 562.467C-181.858 588.253 -185.66 622.254 -158.76 650.027" stroke="#0145FF" stroke-miterlimit="10"/>
</g>
<g style="mix-blend-mode:multiply">
<path d="M614.703 -116.994C614.305 -89.5796 608.523 -62.297 597.483 -35.7513C592.644 -24.0136 586.822 -12.3227 577.282 -1.62682C558.261 19.7274 527.105 34.4815 493.682 45.3297C484.431 48.3165 474.938 51.0403 465.641 53.5295C425.341 63.9505 383.117 71.2273 339.936 75.1933C297.189 79.1783 253.082 79.3512 208.294 84.4913C164.306 89.4529 119.034 95.0438 78.0689 106.334C43.15 115.971 11.0413 131.073 -6.90537 151.741C-10.177 155.518 -12.9384 159.457 -15.161 163.517C-28.9066 188.674 -20.5085 215.866 -6.24523 241.48C-1.72752 249.583 3.36458 257.536 8.51722 265.282C21.9957 285.544 35.8217 306.173 46.7305 326.585C64.1512 359.664 68.2554 391.927 58.2869 424.858C53.3254 441.291 43.0882 459.086 22.8457 472.036C-6.01385 490.509 -43.1241 498.671 -73.7505 509.698C-76.1843 510.571 -78.5577 511.464 -80.931 512.375C-116.743 526.247 -145.466 544.954 -161.479 568.965C-178.61 594.497 -179.631 627.184 -152.338 653.529" stroke="#0145FF" stroke-miterlimit="10"/>
</g>
<g style="mix-blend-mode:multiply">
<path d="M599.559 -122.138C599.236 -95.3397 593.383 -68.6768 582.143 -42.8016C577.228 -31.3549 571.255 -19.9645 561.881 -9.55972C543.345 11.3437 513.7 26.248 481.592 37.5749C472.719 40.7025 463.694 43.586 454.64 46.2065C415.837 57.3015 374.96 65.3484 332.955 70.1612C291.356 75.1414 248.307 76.3095 204.637 81.5622C159.637 86.984 113.367 92.4811 71.253 103.884C35.4422 113.568 2.23016 128.829 -16.3061 149.902C-19.6843 153.75 -22.5467 157.763 -24.8642 161.903C-39.0936 187.642 -30.5142 215.379 -16.0999 241.65C-11.5218 249.941 -6.35416 258.128 -1.23179 266.044C12.2919 286.822 25.8911 308.117 36.2102 329.215C52.7993 363.543 55.5731 396.802 43.2918 430.494C37.5595 446.26 27.0807 463.247 7.62422 475.953C-20.0109 494.003 -54.9901 503.039 -83.4098 514.835C-85.6623 515.765 -87.8844 516.713 -90.0613 517.69C-123.213 532.444 -148.581 551.809 -161.616 575.566C-175.497 600.863 -173.857 632.197 -146.186 657.181" stroke="#0145FF" stroke-miterlimit="10"/>
</g>
<g style="mix-blend-mode:multiply">
<path d="M584.49 -127.235C584.215 -101.011 578.25 -74.9288 566.758 -49.6925C562.045 -38.4115 555.251 -27.5059 546.511 -17.1924C528.398 3.22267 500.174 18.3709 469.547 30.1109C461.036 33.3699 452.42 36.3754 443.652 39.1932C406.296 50.9611 366.716 59.7782 325.836 65.4386C285.492 71.0854 243.501 73.2863 200.919 78.6891C154.997 84.5523 107.654 89.9462 64.4517 101.368C27.6736 111.071 -6.43038 126.623 -25.7074 147.987C-29.2252 151.898 -32.1996 155.988 -34.5981 160.213C-49.4473 186.45 -40.4902 214.778 -25.9854 241.745C-21.4526 250.195 -16.2095 258.599 -11.0418 266.749C2.57246 288.147 15.9145 310.09 25.8102 331.921C41.6131 367.338 43.0716 401.77 28.3263 436.148C21.8384 451.257 11.0726 467.427 -7.43153 479.785C-33.8271 497.422 -66.5997 507.303 -92.8581 519.859C-94.914 520.855 -96.9699 521.869 -98.9956 522.902C-129.457 538.558 -151.53 558.523 -161.511 582.073C-172.189 607.126 -167.827 637.126 -139.748 660.711" stroke="#0145FF" stroke-miterlimit="10"/>
</g>
<g style="mix-blend-mode:multiply">
<path d="M569.375 -132.343C569.174 -106.717 563.118 -81.2379 551.386 -56.6681C546.542 -45.7046 539.783 -35.1025 531.23 -25.0507C513.571 -5.10513 486.828 10.2496 457.592 22.4402C449.439 25.8275 441.165 29.002 432.77 31.9636C396.92 44.4203 358.687 54.0205 318.975 60.5374C279.688 67.0668 238.725 70.2628 197.171 75.8158C150.266 82.0829 102.016 87.4205 57.6953 98.9176C20.1009 108.733 -15.1821 124.38 -35.0034 146.175C-38.6389 150.16 -41.7147 154.333 -44.1964 158.646C-59.6353 185.418 -50.512 214.375 -35.7504 241.952C-31.0968 250.647 -25.899 259.21 -20.7314 267.566C-7.20791 289.434 5.95263 312.053 15.2889 334.569C30.3206 371.141 30.6452 406.748 13.2999 441.764C6.13193 456.244 -4.96628 471.569 -22.6087 483.636C-47.7798 500.85 -78.3608 511.567 -102.428 524.902C-104.332 525.954 -106.192 527.034 -108.036 528.123C-135.837 544.661 -154.6 565.255 -161.558 588.58C-168.986 613.398 -161.918 642.055 -133.461 664.26" stroke="#0145FF" stroke-miterlimit="10"/>
</g>
<g style="mix-blend-mode:multiply">
<path d="M554.26 -137.468C554.126 -112.431 547.982 -87.5463 536.03 -63.6339C531.033 -52.9939 524.31 -42.6962 515.965 -32.8992C498.759 -13.4231 473.482 2.12868 445.637 14.7698C437.867 18.2823 429.95 21.5976 421.888 24.7157C387.514 37.8812 350.586 48.2779 311.992 55.6554C273.854 63.0298 233.918 67.2586 193.467 72.9524C145.625 79.6703 96.3327 84.8671 50.9383 96.4675C12.4219 106.349 -23.889 122.183 -44.2998 144.364C-48.0519 148.422 -51.2338 152.672 -53.8103 157.069C-69.7934 184.386 -60.4436 213.935 -45.5309 242.169C-40.832 251.061 -35.5889 259.821 -30.4213 268.459C-16.8829 290.843 -3.96434 314.12 4.87302 337.34C19.0882 375.077 18.4754 411.904 -1.63617 447.512C-9.51444 461.4 -20.9298 475.833 -37.7106 487.61C-61.7026 504.391 -90.0165 515.972 -111.907 530.077C-113.661 531.166 -115.323 532.312 -116.986 533.477C-141.987 550.61 -157.576 572.235 -161.5 595.228C-165.693 619.802 -155.919 647.116 -127.053 667.921" stroke="#0145FF" stroke-miterlimit="10"/>
</g>
<g style="mix-blend-mode:multiply">
<path d="M539.161 -142.584C539.082 -118.14 532.838 -93.8544 520.659 -70.6091C515.498 -60.2528 508.759 -50.2254 500.534 -40.6631C483.782 -21.6378 460.032 -5.87019 433.516 7.18401C426.139 10.8467 418.55 14.3028 410.841 17.5148C377.975 31.3549 342.401 42.5316 304.98 50.7735C268.02 58.9928 229.157 64.2451 189.72 70.0608C140.88 77.2858 90.6048 82.3043 44.1222 93.9799C4.72902 103.899 -32.6249 119.95 -53.7311 142.468C-57.6179 146.595 -60.9165 150.925 -63.5894 155.408C-80.1168 183.269 -70.5101 213.391 -55.386 242.32C-50.6418 251.409 -45.3534 260.385 -40.1858 269.155C-26.6324 292.075 -13.9408 316.018 -5.6175 339.933C7.82656 378.825 6.45763 416.929 -16.6318 453.072C-25.2456 466.983 -37.4953 479.915 -52.8873 491.348C-75.5944 507.745 -101.777 520.123 -121.461 534.998C-123.023 536.169 -124.55 537.362 -126.042 538.576C-148.325 556.728 -160.757 578.804 -161.547 601.623C-162.489 625.962 -150.055 651.961 -120.751 671.33" stroke="#0145FF" stroke-miterlimit="10"/>
</g>
<g style="mix-blend-mode:multiply">
<path d="M524.063 -147.7C524.037 -123.848 517.694 -100.16 505.289 -77.5844C499.967 -67.5351 493.238 -57.7944 485.179 -48.4741C468.881 -29.9183 446.597 -13.9536 421.502 -0.448832C414.488 3.34528 407.262 6.95161 399.9 10.3983C368.508 24.881 334.263 36.8089 297.998 45.8914C262.173 54.9463 224.398 61.2502 185.988 67.1785C136.286 74.8637 84.923 79.7509 37.3369 91.5111C-2.93299 101.505 -41.3753 117.744 -63.1165 140.619C-67.0998 144.811 -70.4892 149.21 -73.2467 153.766C-90.3336 182.162 -80.4852 212.885 -65.2554 242.424C-60.481 251.72 -55.1473 260.893 -49.9647 269.86C-36.366 293.334 -23.9617 317.943 -16.1223 342.535C-3.47962 382.6 -5.52905 422.122 -31.7324 458.679C-41.087 471.852 -53.3227 484.16 -68.0933 495.256C-89.5759 511.23 -113.567 524.444 -131.135 540.051C-132.526 541.291 -133.856 542.549 -135.171 543.817C-154.722 562.981 -163.989 585.501 -161.638 608.139C-159.361 632.243 -144.16 656.862 -114.508 674.869" stroke="#0145FF" stroke-miterlimit="10"/>
</g>
<g style="mix-blend-mode:multiply">
<path d="M508.933 -152.816C508.984 -129.552 502.556 -106.456 489.932 -84.5503C484.444 -74.8113 477.725 -65.3569 469.837 -56.2757C453.89 -38.3488 433.521 -22.0839 409.471 -8.07231C402.819 -4.14678 395.971 -0.399631 388.956 3.20668C359.049 18.3609 326.132 31.0658 291.015 41.0093C256.338 50.9092 219.636 58.2553 182.239 64.3056C131.585 72.5261 79.2087 77.1786 30.5494 89.0422C-10.703 99.1023 -50.0674 115.519 -72.4888 138.761C-76.6106 143.029 -80.1121 147.517 -82.9518 152.171C-100.598 181.102 -90.5381 212.407 -75.1422 242.613C-70.3073 252.096 -64.9434 261.476 -59.7911 270.631C-46.2228 294.63 -33.9698 319.897 -26.6747 345.202C-14.7881 386.395 -17.3518 427.419 -46.684 464.249C-56.7492 476.673 -68.9833 488.372 -83.1655 499.135C-103.439 514.715 -125.193 528.755 -140.524 545.169C-141.733 546.465 -142.913 547.78 -144.047 549.104C-160.891 569.274 -167.034 592.236 -161.595 614.703C-156.084 638.562 -138.177 661.857 -108.116 678.465" stroke="#0145FF" stroke-miterlimit="10"/>
</g>
<g style="mix-blend-mode:multiply">
<path d="M493.895 -157.895C494.533 -105.19 456.234 -53.7584 397.426 -15.7056C338.619 22.3472 260.436 47.5751 178.522 61.4322C127.021 70.1411 73.5571 74.6434 23.764 86.5729C-26.029 98.5023 -73.5266 119.596 -92.6394 150.547C-116.576 189.282 -91.2217 232.191 -69.5549 271.402C-33.7911 335.935 -8.85208 410.103 -61.6789 469.921C-88.0017 499.718 -131.615 523.055 -153.116 554.306C-182.919 597.643 -160.877 652.488 -101.752 682.004" stroke="#0145FF" stroke-miterlimit="10"/>
</g>
</g>
</svg>
